<svg xmlns="http://www.w3.org/2000/svg" viewBox="0 0 1600 1600">
  <path fill="#4d4d4d" d="m780.667 158.333.666.334zm1.333.091c-24.488 3.255-44.191 13.418-66 24.329-26.135 13.076-51.868 26.934-78 40-99.535 49.767-197.471 102.729-297 152.494-27.138 13.569-53.866 27.939-81 41.506-22.775 11.388-45.055 22.114-48.711 50.247-4.282 32.95 20.231 49.528 45.711 63.309 24.349 13.168 49.239 25.557 74 37.938 104.889 52.445 210.852 104.276 314 160.062 25.005 13.523 50.571 26.224 76 38.938 24.575 12.287 49.581 24.867 78 21.467 23.027-2.754 42.562-13.248 63-23.467 26.795-13.397 53.208-27.604 80-41 99.74-49.869 198.27-102.134 298-152 27.79-13.893 55.53-27.97 83-42.466 21.65-11.424 42.16-24.051 44.83-50.781 3.76-37.65-28.46-52.064-56.83-66.247-21.13-10.564-41.87-21.942-63-32.506-106.7-53.348-214.08-106.81-319-163.556-23.726-12.831-48.03-24.577-72-36.95-22.856-11.797-48.3-24.865-75-21.317Zm14-.424v1h3l-3-1m-23.333 1.333.666.334-.666-.334m33 0 .666.334-.666-.334m-38 1 .666.334-.666-.334M810 160l1 1-1-1m-47 1 1 1-1-1m52 0 1 1-1-1m-55 1 1 1-1-1m58 0 1 1-1-1m-61 1 1 1-1-1m64 0 1 1-1-1m-67 1 1 1-1-1m70 0 1 1-1-1m-73 1 1 1-1-1m-2 1 1 1-1-1m80 0 1 1-1-1m23 11 1 1-1-1m-128 1 1 1-1-1m130 0 1 1-1-1m-132 1 1 1-1-1m134 0 1 1-1-1m-136 1 1 1-1-1m138 0 1 1-1-1m-140 1 1 1-1-1m142 0 1 1-1-1m-144 1 1 1-1-1m146 0 1 1-1-1m-148 1 1 1-1-1m150 0 1 1-1-1m-152 1 1 1-1-1m154 0 1 1-1-1m-156 1 1 1-1-1m158 0 1 1-1-1m-160 1 1 1-1-1m162 0 1 1-1-1m-164 1 1 1-1-1m166 0 1 1-1-1m-168 1 1 1-1-1m185 8 1 1-1-1m-202 1 1 1-1-1m204 0 1 1-1-1m-206 1 1 1-1-1m208 0 1 1-1-1m-210 1 1 1-1-1m212 0 1 1-1-1m-214 1 1 1-1-1m216 0 1 1-1-1m-218 1 1 1-1-1m220 0 1 1-1-1m-222 1 1 1-1-1m224 0 1 1-1-1m-226 1 1 1-1-1m228 0 1 1-1-1m-230 1 1 1-1-1m232 0 1 1-1-1m-234 1 1 1-1-1m236 0 1 1-1-1m-238 1 1 1-1-1m240 0 1 1-1-1m-242 1 1 1-1-1m259 8 1 1-1-1m-276 1 1 1-1-1m278 0 1 1-1-1m-280 1 1 1-1-1m282 0 1 1-1-1m-284 1 1 1-1-1m286 0 1 1-1-1m-288 1 1 1-1-1m290 0 1 1-1-1m-292 1 1 1-1-1m294 0 1 1-1-1m-296 1 1 1-1-1m298 0 1 1-1-1m-300 1 1 1-1-1m302 0 1 1-1-1m-304 1 1 1-1-1m306 0 1 1-1-1m-308 1 1 1-1-1m310 0 1 1-1-1m-312 1 1 1-1-1m314 0 1 1-1-1m-316 1 1 1-1-1m333 8 1 1-1-1m-350 1 1 1-1-1m352 0 1 1-1-1m-354 1 1 1-1-1m356 0 1 1-1-1m-358 1 1 1-1-1m360 0 1 1-1-1m-362 1 1 1-1-1m364 0 1 1-1-1m-366 1 1 1-1-1m368 0 1 1-1-1m-370 1 1 1-1-1m372 0 1 1-1-1m-374 1 1 1-1-1m376 0 1 1-1-1m-378 1 1 1-1-1m380 0 1 1-1-1m-382 1 1 1-1-1m384 0 1 1-1-1m-386 1 1 1-1-1m388 0 1 1-1-1m-390 1 1 1-1-1m409 9 1 1-1-1m-428 1 1 1-1-1m430 0 1 1-1-1m-432 1 1 1-1-1m434 0 1 1-1-1m-436 1 1 1-1-1m438 0 1 1-1-1m-440 1 1 1-1-1m442 0 1 1-1-1m-444 1 1 1-1-1m446 0 1 1-1-1m-448 1 1 1-1-1m450 0 1 1-1-1m-452 1 1 1-1-1m454 0 1 1-1-1m-456 1 1 1-1-1m458 0 1 1-1-1m-460 1 1 1-1-1m462 0 1 1-1-1m-464 1 1 1-1-1m483 9 1 1-1-1m-502 1 1 1-1-1m504 0 1 1-1-1m-506 1 1 1-1-1m508 0 1 1-1-1m-510 1 1 1-1-1m512 0 1 1-1-1m-514 1 1 1-1-1m516 0 1 1-1-1m-518 1 1 1-1-1m520 0 1 1-1-1m-522 1 1 1-1-1m524 0 1 1-1-1m-526 1 1 1-1-1m528 0 1 1-1-1m-530 1 1 1-1-1m532 0 1 1-1-1m-534 1 1 1-1-1m536 0 1 1-1-1m-538 1 1 1-1-1m540 0 1 1-1-1m-542 1 1 1-1-1m557 7 1 1-1-1m-572 1 1 1-1-1m574 0 1 1-1-1m-576 1 1 1-1-1m578 0 1 1-1-1m-580 1 1 1-1-1m582 0 1 1-1-1m-584 1 1 1-1-1m586 0 1 1-1-1m-588 1 1 1-1-1m590 0 1 1-1-1m-592 1 1 1-1-1m594 0 1 1-1-1m-596 1 1 1-1-1m598 0 1 1-1-1m-600 1 1 1-1-1m602 0 1 1-1-1m-604 1 1 1-1-1m606 0 1 1-1-1m-608 1 1 1-1-1m610 0 1 1-1-1m-612 1 1 1-1-1m614 0 1 1-1-1m-616 1 1 1-1-1m631 7 1 1-1-1m-646 1 1 1-1-1m648 0 1 1-1-1m-650 1 1 1-1-1m652 0 1 1-1-1m-654 1 1 1-1-1m656 0 1 1-1-1m-658 1 1 1-1-1m660 0 1 1-1-1m-662 1 1 1-1-1m664 0 1 1-1-1m-666 1 1 1-1-1m668 0 1 1-1-1m-670 1 1 1-1-1m672 0 1 1-1-1m-674 1 1 1-1-1m676 0 1 1-1-1m-678 1 1 1-1-1m680 0 1 1-1-1m-682 1 1 1-1-1m684 0 1 1-1-1m-686 1 1 1-1-1m688 0 1 1-1-1m-690 1 1 1-1-1m707 8 1 1-1-1m-724 1 1 1-1-1m726 0 1 1-1-1m-728 1 1 1-1-1m730 0 1 1-1-1m-732 1 1 1-1-1m734 0 1 1-1-1m-736 1 1 1-1-1m738 0 1 1-1-1m-740 1 1 1-1-1m742 0 1 1-1-1m-744 1 1 1-1-1m746 0 1 1-1-1m-748 1 1 1-1-1m750 0 1 1-1-1m-752 1 1 1-1-1m754 0 1 1-1-1m-756 1 1 1-1-1m758 0 1 1-1-1m-760 1 1 1-1-1m762 0 1 1-1-1m-764 1 1 1-1-1m781 8 1 1-1-1m-798 1 1 1-1-1m800 0 1 1-1-1m-802 1 1 1-1-1m804 0 1 1-1-1m-806 1 1 1-1-1m808 0 1 1-1-1m-810 1 1 1-1-1m812 0 1 1-1-1m-814 1 1 1-1-1m816 0 1 1-1-1m-818 1 1 1-1-1m820 0 1 1-1-1m-822 1 1 1-1-1m824 0 1 1-1-1m-826 1 1 1-1-1m828 0 1 1-1-1m-830 1 1 1-1-1m832 0 1 1-1-1m-834 1 1 1-1-1m836 0 1 1-1-1m-838 1 1 1-1-1m855 8 1 1-1-1m-872 1 1 1-1-1m874 0 1 1-1-1m-876 1 1 1-1-1m878 0 1 1-1-1m-880 1 1 1-1-1m882 0 1 1-1-1m-884 1 1 1-1-1m886 0 1 1-1-1m-888 1 1 1-1-1m890 0 1 1-1-1m-892 1 1 1-1-1m894 0 1 1-1-1m-896 1 1 1-1-1m898 0 1 1-1-1m-900 1 1 1-1-1m902 0 1 1-1-1m-904 1 1 1-1-1m906 0 1 1-1-1m-908 1 1 1-1-1m910 0 1 1-1-1m-912 1 1 1-1-1m929 8 1 1-1-1m-946 1 1 1-1-1m948 0 1 1-1-1m-950 1 1 1-1-1m952 0 1 1-1-1m-954 1 1 1-1-1m956 0 1 1-1-1m-958 1 1 1-1-1m960 0 1 1-1-1m-962 1 1 1-1-1m964 0 1 1-1-1m-966 1 1 1-1-1m968 0 1 1-1-1m-970 1 1 1-1-1m972 0 1 1-1-1m-974 1 1 1-1-1m976 0 1 1-1-1m-978 1 1 1-1-1m980 0 1 1-1-1m-982 1 1 1-1-1m984 0 1 1-1-1m-986 1 1 1-1-1m1005 9 1 1-1-1m-1024 1 1 1-1-1m1026 0 1 1-1-1m-1028 1 1 1-1-1m1030 0 1 1-1-1m-1032 1 1 1-1-1m1034 0 1 1-1-1m-1036 1 1 1-1-1m1038 0 1 1-1-1m-1040 1 1 1-1-1m1042 0 1 1-1-1m-1044 1 1 1-1-1m1046 0 1 1-1-1m-1048 1 1 1-1-1m1050 0 1 1-1-1m-1052 1 1 1-1-1m1054 0 1 1-1-1m-1056 1 1 1-1-1m1058 0 1 1-1-1m-1060 1 1 1-1-1m-18 9 1 1-1-1m-2 1 1 1-1-1m1105 2 1 1-1-1m-1110 1 1 1-1-1m1112 0 2 2-2-2m-1116 3-2 3 2-3m1120 0 7 7-7-7m-1124 4-3 4 3-4m-5 6-1 2 1-2m1138 0 1 1-1-1m2 3 1 1-1-1m-1146 8 1 1-1-1m1150 0 1 1-1-1m-1151 2 1 1-1-1m-1 4 1 1-1-1m1154 0 1 1-1-1m-1154.667 4.667.334.666-.334-.666m1155.997 0 .34.666-.34-.666m0 17 .34.666-.34-.666M211 482l1 1-1-1m1155 4 1 1-1-1m-1154 1 1 1-1-1m1 3 1 1-1-1m1152 0 1 1-1-1m-1151 3 1 1-1-1m1 2 1 1-1-1m1148 0 1 1-1-1m-1147 2 1 1-1-1m1146 0 1 1-1-1m-1145 2 1 1-1-1m1144 0 1 1-1-1m-1142 3 1 1-1-1m1140 0 1 1-1-1m-1138 3 1 1-1-1m1136 0-1 2 1-2m-1127 9 2 2-2-2m1118 0-1 2 1-2m-1114 3 1 1-1-1m1110 0 1 1-1-1m-1105 3 1 1-1-1m1100 0 1 1-1-1m-1096 3 1 1-1-1m1092 0 1 1-1-1m-1090 1 1 1-1-1m1088 0 1 1-1-1m-1086 1 1 1-1-1m1084 0 1 1-1-1m-1082 1 1 1-1-1m1080 0 1 1-1-1m-1078 1 1 1-1-1m1076 0 1 1-1-1m-1074 1 1 1-1-1m1072 0 1 1-1-1m-1070 1 1 1-1-1m1068 0 1 1-1-1m-1066 1 1 1-1-1m1064 0 1 1-1-1m-1062 1 1 1-1-1m1060 0 1 1-1-1M280 542l1 1-1-1m2 1 1 1-1-1m1014 0 1 1-1-1m-1012 1 1 1-1-1m1010 0 1 1-1-1m-1008 1 1 1-1-1m1006 0 1 1-1-1m-1004 1 1 1-1-1m1002 0 1 1-1-1m-1000 1 1 1-1-1m998 0 1 1-1-1m-996 1 1 1-1-1m994 0 1 1-1-1m-992 1 1 1-1-1m990 0 1 1-1-1m-988 1 1 1-1-1m986 0 1 1-1-1m-984 1 1 1-1-1m982 0 1 1-1-1m-980 1 1 1-1-1m978 0 1 1-1-1m-976 1 1 1-1-1m974 0 1 1-1-1m-972 1 1 1-1-1m970 0 1 1-1-1m-968 1 1 1-1-1m966 0 1 1-1-1m-964 1 1 1-1-1m962 0 1 1-1-1m-2 1 1 1-1-1m-939 10 1 1-1-1m2 1 1 1-1-1m916 0 1 1-1-1m-914 1 1 1-1-1m912 0 1 1-1-1m-910 1 1 1-1-1m908 0 1 1-1-1m-906 1 1 1-1-1m904 0 1 1-1-1m-902 1 1 1-1-1m900 0 1 1-1-1m-898 1 1 1-1-1m896 0 1 1-1-1m-894 1 1 1-1-1m892 0 1 1-1-1m-890 1 1 1-1-1m888 0 1 1-1-1m-886 1 1 1-1-1m884 0 1 1-1-1m-882 1 1 1-1-1m880 0 1 1-1-1m-878 1 1 1-1-1m876 0 1 1-1-1m-874 1 1 1-1-1m872 0 1 1-1-1m-870 1 1 1-1-1m868 0 1 1-1-1m-2 1 1 1-1-1m-2 1 1 1-1-1m-843 9 1 1-1-1m2 1 1 1-1-1m2 1 1 1-1-1m818 0 1 1-1-1m-816 1 1 1-1-1m814 0 1 1-1-1m-812 1 1 1-1-1m810 0 1 1-1-1m-808 1 1 1-1-1m806 0 1 1-1-1m-804 1 1 1-1-1m802 0 1 1-1-1m-800 1 1 1-1-1m798 0 1 1-1-1m-796 1 1 1-1-1m794 0 1 1-1-1m-792 1 1 1-1-1m790 0 1 1-1-1m-788 1 1 1-1-1m786 0 1 1-1-1m-784 1 1 1-1-1m782 0 1 1-1-1m-780 1 1 1-1-1m778 0 1 1-1-1m-776 1 1 1-1-1m774 0 1 1-1-1m-2 1 1 1-1-1m-2 1 1 1-1-1m-747 10 1 1-1-1m2 1 1 1-1-1m724 0 1 1-1-1m-722 1 1 1-1-1m720 0 1 1-1-1m-718 1 1 1-1-1m716 0 1 1-1-1m-714 1 1 1-1-1m712 0 1 1-1-1m-710 1 1 1-1-1m708 0 1 1-1-1m-706 1 1 1-1-1m704 0 1 1-1-1m-702 1 1 1-1-1m700 0 1 1-1-1m-698 1 1 1-1-1m696 0 1 1-1-1m-694 1 1 1-1-1m692 0 1 1-1-1m-690 1 1 1-1-1m688 0 1 1-1-1m-686 1 1 1-1-1m684 0 1 1-1-1m-682 1 1 1-1-1m680 0 1 1-1-1m-678 1 1 1-1-1m676 0 1 1-1-1m-674 1 1 1-1-1m672 0 1 1-1-1m-651 11 1 1-1-1m2 1 1 1-1-1m626 0 1 1-1-1m-624 1 1 1-1-1m622 0 1 1-1-1m-620 1 1 1-1-1m618 0 1 1-1-1m-616 1 1 1-1-1m614 0 1 1-1-1m-612 1 1 1-1-1m610 0 1 1-1-1m-608 1 1 1-1-1m606 0 1 1-1-1m-604 1 1 1-1-1m602 0 1 1-1-1m-600 1 1 1-1-1m598 0 1 1-1-1m-596 1 1 1-1-1m594 0 1 1-1-1m-592 1 1 1-1-1m590 0 1 1-1-1m-588 1 1 1-1-1m586 0 1 1-1-1m-584 1 1 1-1-1m582 0 1 1-1-1m-580 1 1 1-1-1m578 0 1 1-1-1m-576 1 1 1-1-1m574 0 1 1-1-1m-2 1 1 1-1-1m-551 10 1 1-1-1m2 1 1 1-1-1m528 0 1 1-1-1m-526 1 1 1-1-1m524 0 1 1-1-1m-522 1 1 1-1-1m520 0 1 1-1-1m-518 1 1 1-1-1m516 0 1 1-1-1m-514 1 1 1-1-1m512 0 1 1-1-1m-510 1 1 1-1-1m508 0 1 1-1-1m-506 1 1 1-1-1m504 0 1 1-1-1m-502 1 1 1-1-1m500 0 1 1-1-1m-498 1 1 1-1-1m496 0 1 1-1-1m-494 1 1 1-1-1m492 0 1 1-1-1m-490 1 1 1-1-1m488 0 1 1-1-1m-486 1 1 1-1-1m484 0 1 1-1-1m-482 1 1 1-1-1m480 0 1 1-1-1m-2 1 1 1-1-1m-2 1 1 1-1-1m-455 9 1 1zm-230 1.862c-5.204.599-10.473 4.968-15 7.357-10.617 5.602-21.44 10.761-32 16.472-35.228 19.052-93.731 35.35-80.37 87.309 1.801 7.004 4.92 13.301 9.385 18.999 10.411 13.283 28.205 20.858 42.985 28.248 25.694 12.847 51.733 25.397 77 39.062 101.587 54.941 205.695 106.285 309 157.941 21.023 10.51 42.324 20.88 63 32.06 25.052 13.55 52.473 28.33 82 25.52 26.327-2.51 47.853-14.93 71-26.58 30.761-15.49 61.401-31.2 92-46.99 104.04-53.703 208.42-106.849 313-159.508 18.7-9.417 37.7-18.722 56-28.891 8.7-4.832 18.83-9.622 25.71-16.951 19.44-20.711 19.4-56.454-2.75-75.445-8.65-7.42-19.93-11.545-29.96-16.723-17.68-9.125-35.21-18.598-53-27.495-7.91-3.956-21.19-14.477-30-14.466-8.97.011-22.91 10.927-31 14.972-25.46 12.732-50.54 26.27-76 39-65.27 32.635-129.73 66.86-195 99.494-23.783 11.891-47.104 26.238-72 35.689-37.622 14.282-77.584 17.548-117 9.615-38.699-7.789-73.14-29.874-108-47.304-64.602-32.301-128.398-66.193-193-98.494-25.796-12.898-51.202-26.607-77-39.506-7.051-3.526-21.156-14.288-29-13.385zM572 691l1 1-1-1m2 1 1 1-1-1m430 0 1 1-1-1m-659 1 1 1-1-1m231 0 1 1-1-1m426 0 1 1-1-1m-655 1 1 1-1-1m231 0 1 1-1-1m422 0 1 1-1-1m-651 1 1 1-1-1m231 0 1 1-1-1m418 0 1 1-1-1m231 0 1 1-1-1m-878 1 1 1-1-1m231 0 1 1-1-1m414 0 1 1-1-1m231 0 1 1-1-1m21 0 1 1-1-1m-920 1 1 1-1-1m25 0 1 1-1-1m231 0 1 1-1-1m410 0 1 1-1-1m231 0 1 1-1-1m25 0 1 1-1-1m-924 1 1 1-1-1m29 0 1 1-1-1m231 0 1 1-1-1m406 0 1 1-1-1m231 0 1 1-1-1m29 0 1 1-1-1m-928 1 1 1-1-1m33 0 1 1-1-1m231 0 1 1-1-1m402 0 1 1-1-1m231 0 1 1-1-1m33 0 1 1-1-1m-932 1 1 1-1-1m37 0 1 1-1-1m231 0 1 1-1-1m398 0 1 1-1-1m231 0 1 1-1-1m37 0 1 1-1-1m-936 1 1 1-1-1m41 0 1 1-1-1m231 0 1 1-1-1m394 0 1 1-1-1m231 0 1 1-1-1m41 0 1 1-1-1m-940 1 1 1-1-1m45 0 1 1-1-1m231 0 1 1-1-1m390 0 1 1-1-1m231 0 1 1-1-1m45 0 1 1-1-1m-944 1 1 1-1-1m49 0 1 1-1-1m231 0 1 1-1-1m386 0 1 1-1-1m231 0 1 1-1-1m49 0 1 1-1-1m-948 1 1 1-1-1m53 0 1 1-1-1m613 0 1 1-1-1m231 0 1 1-1-1m53 0 1 1-1-1m-952 1 1 1-1-1m57 0 1 1-1-1m609 0 1 1-1-1m231 0 1 1-1-1m57 0 1 1-1-1m-956 1 1 1-1-1m897 0 1 1-1-1m-2 1 1 1-1-1m76 6 1 1-1-1m-986 1 1 1-1-1m988 0 1 1-1-1m-990 1 1 1-1-1m95 0 1 1-1-1m231 0 1 1-1-1m666 0 1 1-1-1m-994 1 1 1-1-1m99 0 1 1-1-1m231 0 1 1-1-1m336 0 1 1-1-1m330 0 1 1-1-1m-998 1 1 1-1-1m103 0 1 1-1-1m231 0 1 1-1-1m332 0 1 1-1-1m231 0 1 1-1-1m103 0 1 1-1-1m-1002 1 1 1-1-1m107 0 1 1-1-1m231 0 1 1-1-1m328 0 1 1-1-1m231 0 1 1-1-1m107 0 1 1-1-1m-1006 1 1 1-1-1m111 0 1 1-1-1m231 0 1 1-1-1m324 0 1 1-1-1m231 0 1 1-1-1m111 0 1 1-1-1m-1010 1 1 1-1-1m115 0 1 1-1-1m231 0 1 1-1-1m320 0 1 1-1-1m231 0 1 1-1-1m115 0 1 1-1-1m-1014 1 1 1-1-1m119 0 1 1-1-1m231 0 1 1-1-1m316 0 1 1-1-1m231 0 1 1-1-1m119 0 1 1-1-1m-1018 1 1 1-1-1m123 0 1 1-1-1m231 0 1 1-1-1m312 0 1 1-1-1m231 0 1 1-1-1m123 0 1 1-1-1m-1022 1 1 1-1-1m127 0 1 1-1-1m231 0 1 1-1-1m308 0 1 1-1-1m231 0 1 1-1-1m127 0 1 1-1-1m-1026 1 1 1-1-1m131 0 1 1-1-1m231 0 1 1-1-1m304 0 1 1-1-1m231 0 1 1-1-1m-764 1 1 1-1-1m231 0 1 1-1-1m300 0 1 1-1-1m231 0 1 1-1-1m-760 1 1 1-1-1m231 0 1 1-1-1m296 0 1 1-1-1m231 0 1 1-1-1m-756 1 1 1-1-1m231 0 1 1-1-1m292 0 1 1-1-1m231 0 1 1-1-1m-752 1 1 1-1-1m231 0 1 1-1-1m288 0 1 1-1-1m231 0 1 1-1-1m-517 1 1 1-1-1m284 0 1 1-1-1m231 0 1 1-1-1m154 2 1 1-1-1m-1056 1 1 1-1-1m1058 0 1 1-1-1m-1060 1 1 1-1-1m1062 0 1 1-1-1m-1064 1 1 1-1-1m1066 0 1 1-1-1m-1068 1 1 1-1-1m1070 0 1 1-1-1m-1072 1 1 1-1-1m1074 0 1 1-1-1m-1076 1 1 1-1-1m1078 0 1 1-1-1m-1080 1 1 1-1-1m185 0 1 1-1-1m897 0 1 1-1-1m-1084 1 1 1-1-1m189 0 1 1-1-1m897 0 1 1-1-1m-1088 1 1 1-1-1m193 0 1 1-1-1m231 0 1 1-1-1m473 0 1 1-1-1m193 0 1 1-1-1m-1092 1 1 1-1-1m197 0 1 1-1-1m231 0 1 1-1-1m238 0 1 1-1-1m231 0 1 1-1-1m197 0 1 1-1-1m-1096 1 1 1-1-1m201 0 1 1-1-1m231 0 1 1-1-1m234 0 1 1-1-1m231 0 1 1-1-1m201 0 1 1-1-1m-1100 1 1 1-1-1m205 0 1 1-1-1m231 0 1 1-1-1m230 0 1 1-1-1m231 0 1 1-1-1m205 0 1 1-1-1m-1104 1 1 1-1-1m209 0 1 1-1-1m231 0 1 1-1-1m226 0 1 1-1-1m231 0 1 1-1-1m209 0 1 1-1-1m-895 1 1 1-1-1m231 0 1 1-1-1m222 0 1 1-1-1m231 0 1 1-1-1m-898 1 1 1-1-1m216 0 1 1-1-1m231 0 1 1-1-1m218 0 1 1-1-1m231 0 1 1-1-1m216 0 1 1-1-1m-894 1 1 1-1-1m231 0 1 1-1-1m214 0 1 1-1-1m231 0 1 1-1-1m-897 1-1 2 1-2m223 0 1 1-1-1m231 0 1 1-1-1m210 0 1 1-1-1m231 0 1 1-1-1m223 0 2 2-2-2m-893 1 1 1-1-1m231 0 1 1-1-1m206 0 1 1-1-1m231 0 1 1-1-1m-666 1 1 1-1-1m231 0 1 1-1-1m202 0 1 1-1-1m231 0 1 1-1-1m-431 1 1 1-1-1m198 0 1 1-1-1m231 0 1 1-1-1m-427 1 1 1-1-1m194 0 1 1-1-1m231 0 1 1-1-1m-423 1 1 1-1-1m190 0 1 1-1-1m-188 1 1 1-1-1m186 0 1 1-1-1m-2 1 1 1-1-1m475 0 2 2-2-2m-1133 1-1 2 1-2m-3 4 1 1-1-1m257 0 1 1-1-1m883 0 1 1-1-1m-881 1 1 1-1-1m2 1 1 1-1-1m618 0 1 1-1-1m-881 1 1 1-1-1m265 0 1 1-1-1m614 0 1 1-1-1m-612 1 1 1-1-1m610 0 1 1-1-1m-878 1 1 1-1-1m270 0 1 1-1-1m231 0 1 1-1-1m375 0 1 1-1-1m270 0 1 1-1-1m-874 1 1 1-1-1m231 0 1 1-1-1m140 0 1 1-1-1m231 0 1 1-1-1m-875 1 1 1-1-1m275 0 1 1-1-1m231 0 1 1-1-1m136 0 1 1-1-1m231 0 1 1-1-1m275 0 1 1-1-1m-871 1 1 1-1-1m231 0 1 1-1-1m132 0 1 1-1-1m231 0 1 1-1-1m-592 1 1 1-1-1m231 0 1 1-1-1m128 0 1 1-1-1m231 0 1 1-1-1m-588 1 1 1-1-1m231 0 1 1-1-1m124 0 1 1-1-1m231 0 1 1-1-1m-584 1 1 1-1-1m231 0 1 1-1-1m120 0 1 1-1-1m231 0 1 1-1-1m-867 1 1 1-1-1m287 0 1 1-1-1m231 0 1 1-1-1m116 0 1 1-1-1m231 0 1 1-1-1m287 0 1 1-1-1m-863 1 1 1-1-1m231 0 1 1-1-1m112 0 1 1-1-1m231 0 1 1-1-1m-341 1 1 1-1-1m108 0 1 1-1-1m231 0 1 1-1-1m-861.667 1.667.334.666-.334-.666M737 775l1 1-1-1m104 0 1 1-1-1m231 0 1 1-1-1m-333 1 1 1-1-1m100 0 1 1-1-1m527 0 1 1-1-1m-625 1 1 1-1-1m96 0 1 1-1-1m-626 3 1 1-1-1m537 0 1 1-1-1m82 0 1 1-1-1m537.33.667.34.666-.34-.666M750 781l1 1-1-1m3 1 1 1-1-1m72 0 1 1-1-1m-304 1 1 1-1-1m235 0 1 1-1-1m66 0 1 1-1-1m-299 1 1 1-1-1m236 0 1 1-1-1m60 0 1 1-1-1m-294 1 1 1-1-1m237 0 1 1-1-1m54 0 1 1-1-1m-289 1 1 1-1-1m239 0 1 1-1-1m46 0 1 1-1-1m239 0 1 1-1-1m-522 1 1 1-1-1m241.667.333.666.334-.666-.334m37 0 .666.334-.666-.334M1049 787l1 1-1-1m-518 1 1 1-1-1m245 0v1h3l-3-1m24 0v1h3l-3-1m247 0 1 1-1-1m-514 1 1 1-1-1m512 0 1 1-1-1m-510 1 1 1-1-1m508 0 1 1-1-1m-506 1 1 1-1-1m504 0 1 1-1-1m-502 1 1 1-1-1m500 0 1 1-1-1m-498 1 1 1-1-1m496 0 1 1-1-1m-494 1 1 1-1-1m492 0 1 1-1-1m-490 1 1 1-1-1m488 0 1 1-1-1m-2 1 1 1-1-1m-2 1 1 1-1-1m338.33.667.34.666-.34-.666M211 798l1 1-1-1m816 0 1 1-1-1m-815 4 1 1-1-1m1154 0 1 1-1-1m-802 3 1 1-1-1m-351 1 1 1-1-1m353 0 1 1-1-1m2 1 1 1-1-1m2 1 1 1-1-1m438 0 1 1-1-1m-436 1 1 1-1-1m434 0 1 1-1-1m-432 1 1 1-1-1m430 0 1 1-1-1m-789 1 1 1-1-1m361 0 1 1-1-1m426 0 1 1-1-1m-424 1 1 1-1-1m422 0 1 1-1-1m-784 1 1 1-1-1m364 0 1 1-1-1m418 0 1 1-1-1m-416 1 1 1-1-1m414 0 1 1-1-1m-779 1 1 1-1-1m367 0 1 1-1-1m410 0 1 1-1-1m-408 1 1 1-1-1m406 0 1 1-1-1m-404 1 1 1-1-1m402 0 1 1-1-1m-771 1 1 1-1-1m371 0 1 1-1-1m398 0 1 1-1-1m371 0 1 1-1-1m-767 1 1 1-1-1m394 0 1 1-1-1m-2 1 1 1-1-1m-2 1 1 1-1-1m-760 1 2 2-2-2m758 0 1 1-1-1m376 0-1 2 1-2m-1127 7 2 2-2-2m1120 0-1 2 1-2m-734 2 1 1-1-1m-382 1 1 1-1-1m384 0 1 1-1-1m728 0 1 1-1-1m-726 1 1 1-1-1m340 0 1 1-1-1m-723 1 1 1-1-1m385 0 1 1-1-1m336 0 1 1-1-1m385 0 1 1-1-1m-719 1 1 1-1-1m332 0 1 1-1-1m385 0 1 1-1-1m-715 1 1 1-1-1m328 0 1 1-1-1m385 0 1 1-1-1m-1096 1 1 1-1-1m385 0 1 1-1-1m324 0 1 1-1-1m385 0 1 1-1-1m-707 1 1 1-1-1m320 0 1 1-1-1m-705 1 1 1-1-1m387 0 1 1-1-1m316 0 1 1-1-1m387 0 1 1-1-1m-1088 1 1 1-1-1m387 0 1 1-1-1m312 0 1 1-1-1m387 0 1 1-1-1m-1084 1 1 1-1-1m387 0 1 1-1-1m308 0 1 1-1-1m387 0 1 1-1-1m-693 1 1 1-1-1m304 0 1 1-1-1m387 0 1 1-1-1m-689 1 1 1-1-1m300 0 1 1-1-1m387 0 1 1-1-1m-685 1 1 1-1-1m296 0 1 1-1-1m-2 1 1 1-1-1m-2 1 1 1-1-1m-2 1 1 1-1-1m-2 1 1 1-1-1m-658 5 1 1-1-1m2 1 1 1-1-1m1032 0 1 1-1-1m-1030 1 1 1-1-1m387 0 1 1-1-1m641 0 1 1-1-1m-1026 1 1 1-1-1m387 0 1 1-1-1m637 0 1 1-1-1m-1022 1 1 1-1-1m387 0 1 1-1-1m633 0 1 1-1-1m-1018 1 1 1-1-1m387 0 1 1-1-1m629 0 1 1-1-1m-1014 1 1 1-1-1m387 0 1 1-1-1m238 0 1 1-1-1m387 0 1 1-1-1m-1010 1 1 1-1-1m387 0 1 1-1-1m234 0 1 1-1-1m387 0 1 1-1-1m-1006 1 1 1-1-1m387 0 1 1-1-1m230 0 1 1-1-1m387 0 1 1-1-1m-1002 1 1 1-1-1m387 0 1 1-1-1m226 0 1 1-1-1m387 0 1 1-1-1m-998 1 1 1-1-1m387 0 1 1-1-1m222 0 1 1-1-1m387 0 1 1-1-1m-994 1 1 1-1-1m387 0 1 1-1-1m218 0 1 1-1-1m387 0 1 1-1-1m-990 1 1 1-1-1m387 0 1 1-1-1m214 0 1 1-1-1m387 0 1 1-1-1m-599 1 1 1-1-1m210 0 1 1-1-1m387 0 1 1-1-1m-595 1 1 1-1-1m206 0 1 1-1-1m387 0 1 1-1-1m-591 1 1 1-1-1m202 0 1 1-1-1m-200 1 1 1-1-1m198 0 1 1-1-1m-196 1 1 1-1-1m194 0 1 1-1-1m-192 1 1 1-1-1m190 0 1 1-1-1m-188 1 1 1-1-1m186 0 1 1-1-1m-184 1 1 1-1-1m182 0 1 1-1-1m-180 1 1 1-1-1m178 0 1 1-1-1m-176 1 1 1-1-1m2 1 1 1-1-1m-386 1 1 1-1-1m388 0 1 1-1-1m166 0 1 1-1-1m-552 1 1 1-1-1m938 0 1 1-1-1m-936 1 1 1-1-1m389 0 1 1-1-1m156 0 1 1-1-1m389 0 1 1-1-1m-932 1 1 1-1-1m541 0 1 1-1-1m389 0 1 1-1-1m-928 1 1 1-1-1m390 0 1 1-1-1m146 0 1 1-1-1m390 0 1 1-1-1m-924 1 1 1-1-1m391 0 1 1-1-1m140 0 1 1-1-1m391 0 1 1-1-1m-920 1 1 1-1-1m918 0 1 1-1-1m-916 1 1 1-1-1m392 0 1 1-1-1m130 0 1 1-1-1m392 0 1 1-1-1m-912 1 1 1-1-1m394 0 1 1-1-1m122 0 1 1-1-1m394 0 1 1-1-1m-908 1 1 1-1-1m395 0 1 1-1-1m116 0 1 1-1-1m395 0 1 1-1-1m-904 1 1 1-1-1m396 0 1 1-1-1m110 0 1 1-1-1m396 0 1 1-1-1m-900 1 1 1-1-1m398 0 1 1-1-1m102 0 1 1-1-1m398 0 1 1-1-1m-896 1 1 1-1-1m400 0 1 1-1-1m94 0 1 1-1-1m400 0 1 1-1-1m-892 1 1 1-1-1m402.667.333.666.334-.666-.334m85 0 .666.334-.666-.334M1234 890l1 1-1-1m-482 1 1 1-1-1m74 0 1 1-1-1m-68.333 1.333.666.334-.666-.334m63 0 .666.334-.666-.334m-55 1 .666.334-.666-.334m47 0 .666.334-.666-.334M775 894v1h4l-4-1m25 0v1h4l-4-1m-437 6 1 1-1-1m2 1 1 1-1-1m2 1 1 1-1-1m844 0 1 1-1-1m-842 1 1 1-1-1m840 0 1 1-1-1m-838 1 1 1-1-1m836 0 1 1-1-1m-834 1 1 1-1-1m832 0 1 1-1-1m-830 1 1 1-1-1m828 0 1 1-1-1m-826 1 1 1-1-1m824 0 1 1-1-1m-822 1 1 1-1-1m820 0 1 1-1-1m-818 1 1 1-1-1m816 0 1 1-1-1m-814 1 1 1-1-1m812 0 1 1-1-1m-810 1 1 1-1-1m808 0 1 1-1-1m-806 1 1 1-1-1m804 0 1 1-1-1m-802 1 1 1-1-1m800 0 1 1-1-1m-798 1 1 1-1-1m796 0 1 1-1-1m-2 1 1 1-1-1m-775 9 1 1-1-1m2 1 1 1-1-1m754 0 1 1-1-1m-752 1 1 1-1-1m750 0 1 1-1-1m-748 1 1 1-1-1m746 0 1 1-1-1m-744 1 1 1-1-1m742 0 1 1-1-1m-740 1 1 1-1-1m738 0 1 1-1-1m-736 1 1 1-1-1m734 0 1 1-1-1m-732 1 1 1-1-1m730 0 1 1-1-1m-728 1 1 1-1-1m726 0 1 1-1-1m-724 1 1 1-1-1m722 0 1 1-1-1m-720 1 1 1-1-1m718 0 1 1-1-1m-716 1 1 1-1-1m714 0 1 1-1-1m-712 1 1 1-1-1m710 0 1 1-1-1m-708 1 1 1-1-1m706 0 1 1-1-1m-2 1 1 1-1-1m-2 1 1 1-1-1m-681 9 1 1-1-1m2 1 1 1-1-1m660 0 1 1-1-1m-658 1 1 1-1-1m656 0 1 1-1-1m-654 1 1 1-1-1m652 0 1 1-1-1m-650 1 1 1-1-1m648 0 1 1-1-1m-646 1 1 1-1-1m644 0 1 1-1-1m-642 1 1 1-1-1m640 0 1 1-1-1m-638 1 1 1-1-1m636 0 1 1-1-1m-634 1 1 1-1-1m632 0 1 1-1-1m-630 1 1 1-1-1m628 0 1 1-1-1m-626 1 1 1-1-1m624 0 1 1-1-1m-622 1 1 1-1-1m620 0 1 1-1-1m-618 1 1 1-1-1m616 0 1 1-1-1m-614 1 1 1-1-1m612 0 1 1-1-1m-2 1 1 1-1-1m-589 10 1 1-1-1m2 1 1 1-1-1m566 0 1 1-1-1m-564 1 1 1-1-1m562 0 1 1-1-1m-560 1 1 1-1-1m558 0 1 1-1-1m-556 1 1 1-1-1m554 0 1 1-1-1m-552 1 1 1-1-1m550 0 1 1-1-1m-548 1 1 1-1-1m546 0 1 1-1-1m-544 1 1 1-1-1m542 0 1 1-1-1m-540 1 1 1-1-1m538 0 1 1-1-1m-536 1 1 1-1-1m534 0 1 1-1-1m-532 1 1 1-1-1m530 0 1 1-1-1m-528 1 1 1-1-1m526 0 1 1-1-1m-524 1 1 1-1-1m522 0 1 1-1-1m-2 1 1 1-1-1m-2 1 1 1-1-1m-495 10 1 1-1-1m2 1 1 1-1-1m472 0 1 1-1-1m-470 1 1 1-1-1m468 0 1 1-1-1m-466 1 1 1-1-1m464 0 1 1-1-1m-462 1 1 1-1-1m460 0 1 1-1-1m-458 1 1 1-1-1m456 0 1 1-1-1m-454 1 1 1-1-1m452 0 1 1-1-1m-450 1 1 1-1-1m448 0 1 1-1-1m-446 1 1 1-1-1m444 0 1 1-1-1m-442 1 1 1-1-1m440 0 1 1-1-1m-438 1 1 1-1-1m436 0 1 1-1-1m-668 1 1 1zm1 .85c-13.651 1.79-29.735 14.77-42 20.9-22.393 11.2-52.49 21.47-70.985 38.42-19.425 17.81-21.06 49.18-5.537 69.83 10.801 14.36 29.024 21.26 44.522 29.26 28.61 14.77 57.197 29.59 86 43.99 100.128 50.06 198.925 102.83 299 153 25.728 12.89 51.295 26.05 77 39 20.175 10.16 42.631 20.81 66 18.58 25.554-2.43 46.407-13.29 69-24.58 28.134-14.07 55.869-28.94 84-43 107.8-53.9 214.21-110.59 322-164.5 16.07-8.03 31.94-16.47 48-24.5 13.38-6.7 27.62-13.08 37.91-24.25 18.88-20.51 17.1-55.24-3.92-73.7-8.77-7.69-20.62-12.36-30.99-17.55-17.07-8.53-34.04-17.26-51-26.01-8.35-4.31-21.42-14.96-31-14.96-10.19 0-24.07 11.47-33 15.97-28.73 14.47-57.71 28.64-86 43.94-57.82 31.27-117.28 59.99-176 89.56-28.313 14.25-56.074 31.42-86 42.06-35.813 12.73-73.992 14.35-111 6.69-41.233-8.54-78.958-32.62-116-51.74-58.086-29.98-117.834-57.43-175-89.12-27.122-15.04-55.3-28.44-83-42.39-8.044-4.05-22.753-16.11-32-14.9zm2-.85 1 1-1-1m231 0 1 1-1-1m432 0 1 1-1-1m231 0 1 1-1-1m3 0 1 1-1-1m-902 1 1 1-1-1m7 0 1 1-1-1m231 0 1 1-1-1m428 0 1 1-1-1m231 0 1 1-1-1m7 0 1 1-1-1m-906 1 1 1-1-1m666 0 1 1-1-1m231 0 1 1-1-1m11 0 1 1-1-1m-910 1 1 1-1-1m912 0 1 1-1-1m-914 1 1 1-1-1m916 0 1 1-1-1m-918 1 1 1-1-1m36 7 1 1-1-1m231 0 1 1-1-1m-229 1 1 1-1-1m231 0 1 1-1-1m613 0 1 1-1-1m53 0 1 1-1-1m-952 1 1 1-1-1m57 0 1 1-1-1m231 0 1 1-1-1m378 0 1 1-1-1m231 0 1 1-1-1m57 0 1 1-1-1m-956 1 1 1-1-1m61 0 1 1-1-1m231 0 1 1-1-1m374 0 1 1-1-1m231 0 1 1-1-1m61 0 1 1-1-1m-960 1 1 1-1-1m65 0 1 1-1-1m231 0 1 1-1-1m370 0 1 1-1-1m231 0 1 1-1-1m65 0 1 1-1-1m-964 1 1 1-1-1m69 0 1 1-1-1m231 0 1 1-1-1m366 0 1 1-1-1m231 0 1 1-1-1m69 0 1 1-1-1m-968 1 1 1-1-1m73 0 1 1-1-1m231 0 1 1-1-1m362 0 1 1-1-1m231 0 1 1-1-1m73 0 1 1-1-1m-972 1 1 1-1-1m77 0 1 1-1-1m231 0 1 1-1-1m358 0 1 1-1-1m231 0 1 1-1-1m77 0 1 1-1-1m-976 1 1 1-1-1m81 0 1 1-1-1m231 0 1 1-1-1m354 0 1 1-1-1m231 0 1 1-1-1m81 0 1 1-1-1m-980 1 1 1-1-1m85 0 1 1-1-1m231 0 1 1-1-1m350 0 1 1-1-1m231 0 1 1-1-1m85 0 1 1-1-1m-984 1 1 1-1-1m89 0 1 1-1-1m231 0 1 1-1-1m346 0 1 1-1-1m231 0 1 1-1-1m-806 1 1 1-1-1m231 0 1 1-1-1m342 0 1 1-1-1m231 0 1 1-1-1m-802 1 1 1-1-1m231 0 1 1-1-1m338 0 1 1-1-1m231 0 1 1-1-1m-567 1 1 1-1-1m334 0 1 1-1-1m231 0 1 1-1-1m-563 1 1 1-1-1m330 0 1 1-1-1m343 4 1 1-1-1m-1018 1 1 1-1-1m1020 0 1 1-1-1m-1022 1 1 1-1-1m1024 0 1 1-1-1m-1026 1 1 1-1-1m1028 0 1 1-1-1m-1030 1 1 1-1-1m135 0 1 1-1-1m897 0 1 1-1-1m-1034 1 1 1-1-1m139 0 1 1-1-1m758 0 1 1-1-1m139 0 1 1-1-1m-1038 1 1 1-1-1m143 0 1 1-1-1m231 0 1 1-1-1m523 0 1 1-1-1m143 0 1 1-1-1m-1042 1 1 1-1-1m147 0 1 1-1-1m231 0 1 1-1-1m519 0 1 1-1-1m147 0 1 1-1-1m-1046 1 1 1-1-1m151 0 1 1-1-1m231 0 1 1-1-1m284 0 1 1-1-1m231 0 1 1-1-1m151 0 1 1-1-1m-1050 1 1 1-1-1m155 0 1 1-1-1m231 0 1 1-1-1m280 0 1 1-1-1m231 0 1 1-1-1m155 0 1 1-1-1m-1054 1 1 1-1-1m159 0 1 1-1-1m231 0 1 1-1-1m276 0 1 1-1-1m231 0 1 1-1-1m-736 1 1 1-1-1m231 0 1 1-1-1m272 0 1 1-1-1m231 0 1 1-1-1m-732 1 1 1-1-1m231 0 1 1-1-1m268 0 1 1-1-1m231 0 1 1-1-1m-728 1 1 1-1-1m231 0 1 1-1-1m264 0 1 1-1-1m231 0 1 1-1-1m-724 1 1 1-1-1m231 0 1 1-1-1m260 0 1 1-1-1m231 0 1 1-1-1m-720 1 1 1-1-1m231 0 1 1-1-1m256 0 1 1-1-1m231 0 1 1-1-1m-716 1 1 1-1-1m231 0 1 1-1-1m252 0 1 1-1-1m231 0 1 1-1-1m-481 1 1 1-1-1m248 0 1 1-1-1m231 0 1 1-1-1m-898 1 1 1-1-1m421 0 1 1-1-1m244 0 1 1-1-1m231 0 1 1-1-1m190 0 1 1-1-1m-1088 1 1 1-1-1m425 0 1 1-1-1m240 0 1 1-1-1m425 0 1 1-1-1m-427 1 1 1-1-1m429 0 1 1-1-1m-431 1 1 1-1-1m-671 3 1 1-1-1m1110 0 1 1-1-1m-1113 2-1 2 1-2m222 1 1 1-1-1m895 0 1 1-1-1m-893 1 1 1-1-1m2 1 1 1-1-1m664 0 1 1-1-1m-662 1 1 1-1-1m231 0 1 1-1-1m429 0 1 1-1-1m-658 1 1 1-1-1m231 0 1 1-1-1m194 0 1 1-1-1m231 0 1 1-1-1m-654 1 1 1-1-1m231 0 1 1-1-1m190 0 1 1-1-1m231 0 1 1-1-1m-650 1 1 1-1-1m231 0 1 1-1-1m186 0 1 1-1-1m231 0 1 1-1-1m-646 1 1 1-1-1m231 0 1 1-1-1m182 0 1 1-1-1m231 0 1 1-1-1m-642 1 1 1-1-1m231 0 1 1-1-1m178 0 1 1-1-1m231 0 1 1-1-1m247 0 2 2-2-2m-1135 1 1 1-1-1m250 0 1 1-1-1m231 0 1 1-1-1m174 0 1 1-1-1m231 0 1 1-1-1m-634 1 1 1-1-1m231 0 1 1-1-1m170 0 1 1-1-1m231 0 1 1-1-1m-630 1 1 1-1-1m231 0 1 1-1-1m166 0 1 1-1-1m231 0 1 1-1-1m-884 1 1 1-1-1m258 0 1 1-1-1m231 0 1 1-1-1m162 0 1 1-1-1m231 0 1 1-1-1m258 0 1 1-1-1m-649 1 1 1-1-1m158 0 1 1-1-1m231 0 1 1-1-1m-387 1 1 1-1-1m154 0 1 1-1-1m231 0 1 1-1-1m-880 1 1 1-1-1m497 0 1 1-1-1m150 0 1 1-1-1m497 0 1 1-1-1m-645 1 1 1-1-1m146 0 1 1-1-1m-646 1 1 1-1-1m644 0 1 1-1-1m502 0 1 1-1-1m-1147 2 1 1-1-1m1148 0 1 1-1-1m-1149 2 1 1-1-1m282 1 1 1-1-1m2 1 1 1-1-1m-285 1 1 1-1-1m287 0 1 1-1-1m578 0 1 1-1-1m287 0 1 1-1-1m-863 1 1 1-1-1m574 0 1 1-1-1m-572 1 1 1-1-1m570 0 1 1-1-1m-862 1 1 1-1-1m294 0 1 1-1-1m231 0 1 1-1-1m335 0 1 1-1-1m-564 1 1 1-1-1m231 0 1 1-1-1m100 0 1 1-1-1m231 0 1 1-1-1m296 0 1 1-1-1m-856 1 1 1-1-1m231.667.33.666.34-.666-.34m95 0 .666.34-.666-.34M1068 1093l1 1-1-1m-556 1 1 1-1-1m232 0 1 1-1-1m90 0 1 1-1-1m232 0 1 1-1-1m-552 1 1 1-1-1m232 0 1 1-1-1m86 0 1 1-1-1m232 0 1 1-1-1m-853 1 1 1-1-1m305 0 1 1-1-1m546 0 1 1-1-1m305 0 1 1-1-1m-849 1 1 1-1-1m233 0 1 1-1-1m76 0 1 1-1-1m233 0 1 1-1-1m-540 1 1 1-1-1m538 0 1 1-1-1m-302 1 1 1-1-1m66 0 1 1-1-1m234 0 1 1-1-1m-297 1 1 1-1-1m60 0 1 1-1-1m235 0 1 1-1-1m-291 1 1 1-1-1m52 0 1 1-1-1m-48 1 1 1-1-1m44 0 1 1-1-1m-39.333 1.33.666.34-.666-.34m35 0 .666.34-.666-.34M778 1104v1h3l-3-1m20 0v1h3l-3-1m-257 5 1 1-1-1m2 1 1 1-1-1m492 0 1 1-1-1m-490 1 1 1-1-1m488 0 1 1-1-1m-486 1 1 1-1-1m484 0 1 1-1-1m-819.667 1.67.334.66-.334-.66M549 1113l1 1-1-1m480 0 1 1-1-1m338.33.67.34.66-.34-.66M551 1114l1 1-1-1m476 0 1 1-1-1m-474 1 1 1-1-1m472 0 1 1-1-1m-470 1 1 1-1-1m468 0 1 1-1-1m-466 1 1 1-1-1m464 0 1 1-1-1m-809 1 1 1-1-1m347 0 1 1-1-1m460 0 1 1-1-1m347 0 1 1-1-1m-805 1 1 1-1-1m456 0 1 1-1-1m-454 1 1 1-1-1m452 0 1 1-1-1m-450 1 1 1-1-1m448 0 1 1-1-1m352 0 1 1-1-1m-354 1 1 1-1-1m-2 1 1 1-1-1m-795 1 1 1-1-1m1150 0 1 1-1-1m-1146 8 1 1-1-1m368 0 1 1-1-1m774 0 1 1-1-1m-772 1 1 1-1-1m-369 1 2 2-2-2m371 0 1 1-1-1m2 1 1 1-1-1m394 0 1 1-1-1m372 0 1 1-1-1m-764 1 1 1-1-1m390 0 1 1-1-1m-388 1 1 1-1-1m386 0 1 1-1-1m-760 1 3 3-3-3m376 0 1 1-1-1m382 0 1 1-1-1m-380 1 1 1-1-1m378 0 1 1-1-1m377 0-6 7 6-7m-753 1 1 1-1-1m374 0 1 1-1-1m-372 1 1 1-1-1m370 0 1 1-1-1m-368 1 1 1-1-1m366 0 1 1-1-1m-745 1 3 3-3-3m381 0 1 1-1-1m362 0 1 1-1-1m-360 1 1 1-1-1m358 0 1 1-1-1m-356 1 1 1-1-1m354 0 1 1-1-1m-2 1 1 1-1-1m-2 1 1 1-1-1m-729 1 1 1-1-1m727 0 1 1-1-1m385 0 1 1-1-1m-1107 3 1 1-1-1m1102 0 1 1-1-1m-1100 1 1 1-1-1m1098 0 1 1-1-1m-1094 3 1 1-1-1m2 1 1 1-1-1m1086 0 1 1-1-1m-1084 1 1 1-1-1m387 0 1 1-1-1m695 0 1 1-1-1m-1080 1 1 1-1-1m387 0 1 1-1-1m691 0 1 1-1-1m-1076 1 1 1-1-1m387 0 1 1-1-1m687 0 1 1-1-1m-1072 1 1 1-1-1m387 0 1 1-1-1m683 0 1 1-1-1m-1068 1 1 1-1-1m387 0 1 1-1-1m292 0 1 1-1-1m387 0 1 1-1-1m-1064 1 1 1-1-1m387 0 1 1-1-1m288 0 1 1-1-1m387 0 1 1-1-1m-1060 1 1 1-1-1m387 0 1 1-1-1m284 0 1 1-1-1m387 0 1 1-1-1m-1056 1 1 1-1-1m387 0 1 1-1-1m280 0 1 1-1-1m387 0 1 1-1-1m-1052 1 1 1-1-1m387 0 1 1-1-1m276 0 1 1-1-1m387 0 1 1-1-1m-1048 1 1 1-1-1m387 0 1 1-1-1m272 0 1 1-1-1m387 0 1 1-1-1m-1044 1 1 1-1-1m387 0 1 1-1-1m268 0 1 1-1-1m387 0 1 1-1-1m-1040 1 1 1-1-1m387 0 1 1-1-1m264 0 1 1-1-1m387 0 1 1-1-1m-649 1 1 1-1-1m260 0 1 1-1-1m-258 1 1 1-1-1m256 0 1 1-1-1m-254 1 1 1-1-1m252 0 1 1-1-1m-2 1 1 1-1-1m-2 1 1 1-1-1m-2 1 1 1-1-1m-2 1 1 1-1-1m-618 3 1 1-1-1m2 1 1 1-1-1m2 1 1 1-1-1m992 0 1 1-1-1m-990 1 1 1-1-1m988 0 1 1-1-1m-986 1 1 1-1-1m984 0 1 1-1-1m-982 1 1 1-1-1m980 0 1 1-1-1m-978 1 1 1-1-1m976 0 1 1-1-1m-974 1 1 1-1-1m972 0 1 1-1-1m-970 1 1 1-1-1m968 0 1 1-1-1m-966 1 1 1-1-1m577 0 1 1-1-1m387 0 1 1-1-1m-962 1 1 1-1-1m573 0 1 1-1-1m387 0 1 1-1-1m-958 1 1 1-1-1m387 0 1 1-1-1m182 0 1 1-1-1m387 0 1 1-1-1m-954 1 1 1-1-1m387 0 1 1-1-1m178 0 1 1-1-1m387 0 1 1-1-1m-950 1 1 1-1-1m387 0 1 1-1-1m174 0 1 1-1-1m387 0 1 1-1-1m-946 1 1 1-1-1m387 0 1 1-1-1m170 0 1 1-1-1m387 0 1 1-1-1m-2 1 1 1-1-1m-550 1 1 1-1-1m160 0 1 1-1-1m-2 1 1 1-1-1m-153 1 1 1-1-1m150 0 1 1-1-1m-145 2 1 1-1-1m140 0 1 1-1-1m-137 1 1 1-1-1m134 0 1 1-1-1m-131 1 1 1-1-1m128 0 1 1-1-1m-125 1 1 1-1-1m122 0 1 1-1-1m-514 1 1 1-1-1m396 0 1 1-1-1m114 0 1 1-1-1m-508 1 1 1-1-1m397 0 1 1-1-1m108 0 1 1-1-1m397 0 1 1-1-1m-900 1 1 1-1-1m399 0 1 1-1-1m100 0 1 1-1-1m399 0 1 1-1-1m-896 1 1 1-1-1m401 0 1 1-1-1m92 0 1 1-1-1m401 0 1 1-1-1m-892 1 1 1-1-1m404 0 1 1-1-1m82 0 1 1-1-1m404 0 1 1-1-1m-888 1 1 1-1-1m407 0 1 1-1-1m72 0 1 1-1-1m407 0 1 1-1-1m-884 1 1 1-1-1m411.667.33.666.34-.666-.34m59 0 .666.34-.666-.34M1230 1208l1 1-1-1m-880 1 1 1-1-1m416 0v1h3l-3-1m44 0v1h3l-3-1m418 0 1 1-1-1m-876 1 1 1-1-1m426 0v1h8l-8-1m15 0v1h8l-8-1m433 0 1 1-1-1m-872 1 1 1-1-1m870 0 1 1-1-1m-868 1 1 1-1-1m866 0 1 1-1-1m-864 1 1 1-1-1m862 0 1 1-1-1m-860 1 1 1-1-1m858 0 1 1-1-1m-856 1 1 1-1-1m854 0 1 1-1-1m-2 1 1 1-1-1m-2 1 1 1-1-1m-829 9 1 1-1-1m2 1 1 1-1-1m808 0 1 1-1-1m-806 1 1 1-1-1m804 0 1 1-1-1m-802 1 1 1-1-1m800 0 1 1-1-1m-798 1 1 1-1-1m796 0 1 1-1-1m-794 1 1 1-1-1m792 0 1 1-1-1m-790 1 1 1-1-1m788 0 1 1-1-1m-786 1 1 1-1-1m784 0 1 1-1-1m-782 1 1 1-1-1m780 0 1 1-1-1m-778 1 1 1-1-1m776 0 1 1-1-1m-774 1 1 1-1-1m772 0 1 1-1-1m-770 1 1 1-1-1m768 0 1 1-1-1m-766 1 1 1-1-1m764 0 1 1-1-1m-762 1 1 1-1-1m760 0 1 1-1-1m-2 1 1 1-1-1m-737 10 1 1-1-1m2 1 1 1-1-1m714 0 1 1-1-1m-712 1 1 1-1-1m710 0 1 1-1-1m-708 1 1 1-1-1m706 0 1 1-1-1m-704 1 1 1-1-1m702 0 1 1-1-1m-700 1 1 1-1-1m698 0 1 1-1-1m-696 1 1 1-1-1m694 0 1 1-1-1m-692 1 1 1-1-1m690 0 1 1-1-1m-688 1 1 1-1-1m686 0 1 1-1-1m-684 1 1 1-1-1m682 0 1 1-1-1m-680 1 1 1-1-1m678 0 1 1-1-1m-676 1 1 1-1-1m674 0 1 1-1-1m-672 1 1 1-1-1m670 0 1 1-1-1m-2 1 1 1-1-1m-2 1 1 1-1-1m-643 10 1 1-1-1m2 1 1 1-1-1m620 0 1 1-1-1m-618 1 1 1-1-1m616 0 1 1-1-1m-614 1 1 1-1-1m612 0 1 1-1-1m-610 1 1 1-1-1m608 0 1 1-1-1m-606 1 1 1-1-1m604 0 1 1-1-1m-602 1 1 1-1-1m600 0 1 1-1-1m-598 1 1 1-1-1m596 0 1 1-1-1m-594 1 1 1-1-1m592 0 1 1-1-1m-590 1 1 1-1-1m588 0 1 1-1-1m-586 1 1 1-1-1m584 0 1 1-1-1m-582 1 1 1-1-1m580 0 1 1-1-1m-578 1 1 1-1-1m576 0 1 1-1-1m-2 1 1 1-1-1m-2 1 1 1-1-1m-549 10 1 1-1-1m2 1 1 1-1-1m526 0 1 1-1-1m-524 1 1 1-1-1m522 0 1 1-1-1m-520 1 1 1-1-1m518 0 1 1-1-1m-516 1 1 1-1-1m514 0 1 1-1-1m-512 1 1 1-1-1m510 0 1 1-1-1m-508 1 1 1-1-1m506 0 1 1-1-1m-504 1 1 1-1-1m502 0 1 1-1-1m-500 1 1 1-1-1m498 0 1 1-1-1m-496 1 1 1-1-1m494 0 1 1-1-1m-492 1 1 1-1-1m490 0 1 1-1-1m-488 1 1 1-1-1m486 0 1 1-1-1m-484 1 1 1-1-1m482 0 1 1-1-1m-480 1 1 1-1-1m478 0 1 1-1-1m-459 10 1 1-1-1m2 1 1 1-1-1m2 1 1 1-1-1m432 0 1 1-1-1m-430 1 1 1-1-1m428 0 1 1-1-1m-426 1 1 1-1-1m424 0 1 1-1-1m-422 1 1 1-1-1m420 0 1 1-1-1m-418 1 1 1-1-1m416 0 1 1-1-1m-414 1 1 1-1-1m412 0 1 1-1-1m-410 1 1 1-1-1m408 0 1 1-1-1m-406 1 1 1-1-1m404 0 1 1-1-1m-402 1 1 1-1-1m400 0 1 1-1-1m-398 1 1 1-1-1m396 0 1 1-1-1m-394 1 1 1-1-1m392 0 1 1-1-1m-390 1 1 1-1-1m388 0 1 1-1-1m-386 1 1 1-1-1m384 0 1 1-1-1m-365 10 1 1-1-1m2 1 1 1-1-1m342 0 1 1-1-1m-340 1 1 1-1-1m338 0 1 1-1-1m-336 1 1 1-1-1m334 0 1 1-1-1m-332 1 1 1-1-1m330 0 1 1-1-1m-328 1 1 1-1-1m326 0 1 1-1-1m-324 1 1 1-1-1m322 0 1 1-1-1m-320 1 1 1-1-1m318 0 1 1-1-1m-316 1 1 1-1-1m314 0 1 1-1-1m-312 1 1 1-1-1m310 0 1 1-1-1m-308 1 1 1-1-1m306 0 1 1-1-1m-304 1 1 1-1-1m302 0 1 1-1-1m-300 1 1 1-1-1m298 0 1 1-1-1m-296 1 1 1-1-1m294 0 1 1-1-1m-2 1 1 1-1-1m-2 1 1 1-1-1m-269 9 1 1-1-1m2 1 1 1-1-1m248 0 1 1-1-1m-246 1 1 1-1-1m244 0 1 1-1-1m-242 1 1 1-1-1m240 0 1 1-1-1m-238 1 1 1-1-1m236 0 1 1-1-1m-234 1 1 1-1-1m232 0 1 1-1-1m-230 1 1 1-1-1m228 0 1 1-1-1m-226 1 1 1-1-1m224 0 1 1-1-1m-222 1 1 1-1-1m220 0 1 1-1-1m-218 1 1 1-1-1m216 0 1 1-1-1m-214 1 1 1-1-1m212 0 1 1-1-1m-210 1 1 1-1-1m208 0 1 1-1-1m-206 1 1 1-1-1m204 0 1 1-1-1m-202 1 1 1-1-1m200 0 1 1-1-1m-2 1 1 1-1-1m-177 10 1 1-1-1m2 1 1 1-1-1m154 0 1 1-1-1m-152 1 1 1-1-1m150 0 1 1-1-1m-148 1 1 1-1-1m146 0 1 1-1-1m-144 1 1 1-1-1m142 0 1 1-1-1m-140 1 1 1-1-1m138 0 1 1-1-1m-136 1 1 1-1-1m134 0 1 1-1-1m-132 1 1 1-1-1m130 0 1 1-1-1m-128 1 1 1-1-1m126 0 1 1-1-1m-124 1 1 1-1-1m122 0 1 1-1-1m-120 1 1 1-1-1m118 0 1 1-1-1m-116 1 1 1-1-1m114 0 1 1-1-1m-112 1 1 1-1-1m110 0 1 1-1-1m-2 1 1 1-1-1m-2 1 1 1-1-1m-98 2 1 1-1-1m7 3 1 1-1-1m80 0 1 1-1-1m-75 2 1 1-1-1m70 0 1 1-1-1m-67 1 1 1-1-1m64 0 1 1-1-1m-61 1 1 1-1-1m58 0 1 1-1-1m-54 1 1 1-1-1m50 0 1 1-1-1m-46 1 1 1-1-1m42 0 1 1-1-1m-36.333 1.33.666.34-.666-.34m31 0 .666.34-.666-.34M780 1420v1h3l-3-1m16 0v1h3z"/>
  <path fill="gray" d="m780.667 158.333.666.334zm1.333.091c-24.488 3.255-44.191 13.418-66 24.329-26.135 13.076-51.868 26.934-78 40-99.535 49.767-197.471 102.729-297 152.494-27.138 13.569-53.866 27.939-81 41.506-22.775 11.388-45.055 22.114-48.711 50.247-4.282 32.95 20.231 49.528 45.711 63.309 24.349 13.168 49.239 25.557 74 37.938 104.889 52.445 210.852 104.276 314 160.062 25.005 13.523 50.571 26.224 76 38.938 24.575 12.287 49.581 24.867 78 21.467 23.027-2.754 42.562-13.248 63-23.467 26.795-13.397 53.208-27.604 80-41 99.74-49.869 198.27-102.134 298-152 27.79-13.893 55.53-27.97 83-42.466 21.65-11.424 42.16-24.051 44.83-50.781 3.76-37.65-28.46-52.064-56.83-66.247-21.13-10.564-41.87-21.942-63-32.506-106.7-53.348-214.08-106.81-319-163.556-23.726-12.831-48.03-24.577-72-36.95-22.856-11.797-48.3-24.865-75-21.317Zm14-.424v1h3l-3-1m-23.333 1.333.666.334-.666-.334m33 0 .666.334-.666-.334m-38 1 .666.334-.666-.334M810 160l1 1-1-1m-47 1 1 1-1-1m52 0 1 1-1-1m-55 1 1 1-1-1m58 0 1 1-1-1m-61 1 1 1-1-1m64 0 1 1-1-1m-67 1 1 1-1-1m70 0 1 1-1-1m-73 1 1 1-1-1m-2 1 1 1-1-1m80 0 1 1-1-1m23 11 1 1-1-1m-128 1 1 1-1-1m130 0 1 1-1-1m-132 1 1 1-1-1m134 0 1 1-1-1m-136 1 1 1-1-1m138 0 1 1-1-1m-140 1 1 1-1-1m142 0 1 1-1-1m-144 1 1 1-1-1m146 0 1 1-1-1m-148 1 1 1-1-1m150 0 1 1-1-1m-152 1 1 1-1-1m154 0 1 1-1-1m-156 1 1 1-1-1m158 0 1 1-1-1m-160 1 1 1-1-1m162 0 1 1-1-1m-164 1 1 1-1-1m166 0 1 1-1-1m-168 1 1 1-1-1m185 8 1 1-1-1m-202 1 1 1-1-1m204 0 1 1-1-1m-206 1 1 1-1-1m208 0 1 1-1-1m-210 1 1 1-1-1m212 0 1 1-1-1m-214 1 1 1-1-1m216 0 1 1-1-1m-218 1 1 1-1-1m220 0 1 1-1-1m-222 1 1 1-1-1m224 0 1 1-1-1m-226 1 1 1-1-1m228 0 1 1-1-1m-230 1 1 1-1-1m232 0 1 1-1-1m-234 1 1 1-1-1m236 0 1 1-1-1m-238 1 1 1-1-1m240 0 1 1-1-1m-242 1 1 1-1-1m259 8 1 1-1-1m-276 1 1 1-1-1m278 0 1 1-1-1m-280 1 1 1-1-1m282 0 1 1-1-1m-284 1 1 1-1-1m286 0 1 1-1-1m-288 1 1 1-1-1m290 0 1 1-1-1m-292 1 1 1-1-1m294 0 1 1-1-1m-296 1 1 1-1-1m298 0 1 1-1-1m-300 1 1 1-1-1m302 0 1 1-1-1m-304 1 1 1-1-1m306 0 1 1-1-1m-308 1 1 1-1-1m310 0 1 1-1-1m-312 1 1 1-1-1m314 0 1 1-1-1m-316 1 1 1-1-1m333 8 1 1-1-1m-350 1 1 1-1-1m352 0 1 1-1-1m-354 1 1 1-1-1m356 0 1 1-1-1m-358 1 1 1-1-1m360 0 1 1-1-1m-362 1 1 1-1-1m364 0 1 1-1-1m-366 1 1 1-1-1m368 0 1 1-1-1m-370 1 1 1-1-1m372 0 1 1-1-1m-374 1 1 1-1-1m376 0 1 1-1-1m-378 1 1 1-1-1m380 0 1 1-1-1m-382 1 1 1-1-1m384 0 1 1-1-1m-386 1 1 1-1-1m388 0 1 1-1-1m-390 1 1 1-1-1m409 9 1 1-1-1m-428 1 1 1-1-1m430 0 1 1-1-1m-432 1 1 1-1-1m434 0 1 1-1-1m-436 1 1 1-1-1m438 0 1 1-1-1m-440 1 1 1-1-1m442 0 1 1-1-1m-444 1 1 1-1-1m446 0 1 1-1-1m-448 1 1 1-1-1m450 0 1 1-1-1m-452 1 1 1-1-1m454 0 1 1-1-1m-456 1 1 1-1-1m458 0 1 1-1-1m-460 1 1 1-1-1m462 0 1 1-1-1m-464 1 1 1-1-1m483 9 1 1-1-1m-502 1 1 1-1-1m504 0 1 1-1-1m-506 1 1 1-1-1m508 0 1 1-1-1m-510 1 1 1-1-1m512 0 1 1-1-1m-514 1 1 1-1-1m516 0 1 1-1-1m-518 1 1 1-1-1m520 0 1 1-1-1m-522 1 1 1-1-1m524 0 1 1-1-1m-526 1 1 1-1-1m528 0 1 1-1-1m-530 1 1 1-1-1m532 0 1 1-1-1m-534 1 1 1-1-1m536 0 1 1-1-1m-538 1 1 1-1-1m540 0 1 1-1-1m-542 1 1 1-1-1m557 7 1 1-1-1m-572 1 1 1-1-1m574 0 1 1-1-1m-576 1 1 1-1-1m578 0 1 1-1-1m-580 1 1 1-1-1m582 0 1 1-1-1m-584 1 1 1-1-1m586 0 1 1-1-1m-588 1 1 1-1-1m590 0 1 1-1-1m-592 1 1 1-1-1m594 0 1 1-1-1m-596 1 1 1-1-1m598 0 1 1-1-1m-600 1 1 1-1-1m602 0 1 1-1-1m-604 1 1 1-1-1m606 0 1 1-1-1m-608 1 1 1-1-1m610 0 1 1-1-1m-612 1 1 1-1-1m614 0 1 1-1-1m-616 1 1 1-1-1m631 7 1 1-1-1m-646 1 1 1-1-1m648 0 1 1-1-1m-650 1 1 1-1-1m652 0 1 1-1-1m-654 1 1 1-1-1m656 0 1 1-1-1m-658 1 1 1-1-1m660 0 1 1-1-1m-662 1 1 1-1-1m664 0 1 1-1-1m-666 1 1 1-1-1m668 0 1 1-1-1m-670 1 1 1-1-1m672 0 1 1-1-1m-674 1 1 1-1-1m676 0 1 1-1-1m-678 1 1 1-1-1m680 0 1 1-1-1m-682 1 1 1-1-1m684 0 1 1-1-1m-686 1 1 1-1-1m688 0 1 1-1-1m-690 1 1 1-1-1m707 8 1 1-1-1m-724 1 1 1-1-1m726 0 1 1-1-1m-728 1 1 1-1-1m730 0 1 1-1-1m-732 1 1 1-1-1m734 0 1 1-1-1m-736 1 1 1-1-1m738 0 1 1-1-1m-740 1 1 1-1-1m742 0 1 1-1-1m-744 1 1 1-1-1m746 0 1 1-1-1m-748 1 1 1-1-1m750 0 1 1-1-1m-752 1 1 1-1-1m754 0 1 1-1-1m-756 1 1 1-1-1m758 0 1 1-1-1m-760 1 1 1-1-1m762 0 1 1-1-1m-764 1 1 1-1-1m781 8 1 1-1-1m-798 1 1 1-1-1m800 0 1 1-1-1m-802 1 1 1-1-1m804 0 1 1-1-1m-806 1 1 1-1-1m808 0 1 1-1-1m-810 1 1 1-1-1m812 0 1 1-1-1m-814 1 1 1-1-1m816 0 1 1-1-1m-818 1 1 1-1-1m820 0 1 1-1-1m-822 1 1 1-1-1m824 0 1 1-1-1m-826 1 1 1-1-1m828 0 1 1-1-1m-830 1 1 1-1-1m832 0 1 1-1-1m-834 1 1 1-1-1m836 0 1 1-1-1m-838 1 1 1-1-1m855 8 1 1-1-1m-872 1 1 1-1-1m874 0 1 1-1-1m-876 1 1 1-1-1m878 0 1 1-1-1m-880 1 1 1-1-1m882 0 1 1-1-1m-884 1 1 1-1-1m886 0 1 1-1-1m-888 1 1 1-1-1m890 0 1 1-1-1m-892 1 1 1-1-1m894 0 1 1-1-1m-896 1 1 1-1-1m898 0 1 1-1-1m-900 1 1 1-1-1m902 0 1 1-1-1m-904 1 1 1-1-1m906 0 1 1-1-1m-908 1 1 1-1-1m910 0 1 1-1-1m-912 1 1 1-1-1m929 8 1 1-1-1m-946 1 1 1-1-1m948 0 1 1-1-1m-950 1 1 1-1-1m952 0 1 1-1-1m-954 1 1 1-1-1m956 0 1 1-1-1m-958 1 1 1-1-1m960 0 1 1-1-1m-962 1 1 1-1-1m964 0 1 1-1-1m-966 1 1 1-1-1m968 0 1 1-1-1m-970 1 1 1-1-1m972 0 1 1-1-1m-974 1 1 1-1-1m976 0 1 1-1-1m-978 1 1 1-1-1m980 0 1 1-1-1m-982 1 1 1-1-1m984 0 1 1-1-1m-986 1 1 1-1-1m1005 9 1 1-1-1m-1024 1 1 1-1-1m1026 0 1 1-1-1m-1028 1 1 1-1-1m1030 0 1 1-1-1m-1032 1 1 1-1-1m1034 0 1 1-1-1m-1036 1 1 1-1-1m1038 0 1 1-1-1m-1040 1 1 1-1-1m1042 0 1 1-1-1m-1044 1 1 1-1-1m1046 0 1 1-1-1m-1048 1 1 1-1-1m1050 0 1 1-1-1m-1052 1 1 1-1-1m1054 0 1 1-1-1m-1056 1 1 1-1-1m1058 0 1 1-1-1m-1060 1 1 1-1-1m-18 9 1 1-1-1m-2 1 1 1-1-1m1105 2 1 1-1-1m-1110 1 1 1-1-1m1112 0 2 2-2-2m-1116 3-2 3 2-3m1120 0 7 7-7-7m-1124 4-3 4 3-4m-5 6-1 2 1-2m1138 0 1 1-1-1m2 3 1 1-1-1m-1146 8 1 1-1-1m1150 0 1 1-1-1m-1151 2 1 1-1-1m-1 4 1 1-1-1m1154 0 1 1-1-1m-1154.667 4.667.334.666-.334-.666m1155.997 0 .34.666-.34-.666m0 17 .34.666-.34-.666M211 482l1 1-1-1m1155 4 1 1-1-1m-1154 1 1 1-1-1m1 3 1 1-1-1m1152 0 1 1-1-1m-1151 3 1 1-1-1m1 2 1 1-1-1m1148 0 1 1-1-1m-1147 2 1 1-1-1m1146 0 1 1-1-1m-1145 2 1 1-1-1m1144 0 1 1-1-1m-1142 3 1 1-1-1m1140 0 1 1-1-1m-1138 3 1 1-1-1m1136 0-1 2 1-2m-1127 9 2 2-2-2m1118 0-1 2 1-2m-1114 3 1 1-1-1m1110 0 1 1-1-1m-1105 3 1 1-1-1m1100 0 1 1-1-1m-1096 3 1 1-1-1m1092 0 1 1-1-1m-1090 1 1 1-1-1m1088 0 1 1-1-1m-1086 1 1 1-1-1m1084 0 1 1-1-1m-1082 1 1 1-1-1m1080 0 1 1-1-1m-1078 1 1 1-1-1m1076 0 1 1-1-1m-1074 1 1 1-1-1m1072 0 1 1-1-1m-1070 1 1 1-1-1m1068 0 1 1-1-1m-1066 1 1 1-1-1m1064 0 1 1-1-1m-1062 1 1 1-1-1m1060 0 1 1-1-1M280 542l1 1-1-1m2 1 1 1-1-1m1014 0 1 1-1-1m-1012 1 1 1-1-1m1010 0 1 1-1-1m-1008 1 1 1-1-1m1006 0 1 1-1-1m-1004 1 1 1-1-1m1002 0 1 1-1-1m-1000 1 1 1-1-1m998 0 1 1-1-1m-996 1 1 1-1-1m994 0 1 1-1-1m-992 1 1 1-1-1m990 0 1 1-1-1m-988 1 1 1-1-1m986 0 1 1-1-1m-984 1 1 1-1-1m982 0 1 1-1-1m-980 1 1 1-1-1m978 0 1 1-1-1m-976 1 1 1-1-1m974 0 1 1-1-1m-972 1 1 1-1-1m970 0 1 1-1-1m-968 1 1 1-1-1m966 0 1 1-1-1m-964 1 1 1-1-1m962 0 1 1-1-1m-2 1 1 1-1-1m-939 10 1 1-1-1m2 1 1 1-1-1m916 0 1 1-1-1m-914 1 1 1-1-1m912 0 1 1-1-1m-910 1 1 1-1-1m908 0 1 1-1-1m-906 1 1 1-1-1m904 0 1 1-1-1m-902 1 1 1-1-1m900 0 1 1-1-1m-898 1 1 1-1-1m896 0 1 1-1-1m-894 1 1 1-1-1m892 0 1 1-1-1m-890 1 1 1-1-1m888 0 1 1-1-1m-886 1 1 1-1-1m884 0 1 1-1-1m-882 1 1 1-1-1m880 0 1 1-1-1m-878 1 1 1-1-1m876 0 1 1-1-1m-874 1 1 1-1-1m872 0 1 1-1-1m-870 1 1 1-1-1m868 0 1 1-1-1m-2 1 1 1-1-1m-2 1 1 1-1-1m-843 9 1 1-1-1m2 1 1 1-1-1m2 1 1 1-1-1m818 0 1 1-1-1m-816 1 1 1-1-1m814 0 1 1-1-1m-812 1 1 1-1-1m810 0 1 1-1-1m-808 1 1 1-1-1m806 0 1 1-1-1m-804 1 1 1-1-1m802 0 1 1-1-1m-800 1 1 1-1-1m798 0 1 1-1-1m-796 1 1 1-1-1m794 0 1 1-1-1m-792 1 1 1-1-1m790 0 1 1-1-1m-788 1 1 1-1-1m786 0 1 1-1-1m-784 1 1 1-1-1m782 0 1 1-1-1m-780 1 1 1-1-1m778 0 1 1-1-1m-776 1 1 1-1-1m774 0 1 1-1-1m-2 1 1 1-1-1m-2 1 1 1-1-1m-747 10 1 1-1-1m2 1 1 1-1-1m724 0 1 1-1-1m-722 1 1 1-1-1m720 0 1 1-1-1m-718 1 1 1-1-1m716 0 1 1-1-1m-714 1 1 1-1-1m712 0 1 1-1-1m-710 1 1 1-1-1m708 0 1 1-1-1m-706 1 1 1-1-1m704 0 1 1-1-1m-702 1 1 1-1-1m700 0 1 1-1-1m-698 1 1 1-1-1m696 0 1 1-1-1m-694 1 1 1-1-1m692 0 1 1-1-1m-690 1 1 1-1-1m688 0 1 1-1-1m-686 1 1 1-1-1m684 0 1 1-1-1m-682 1 1 1-1-1m680 0 1 1-1-1m-678 1 1 1-1-1m676 0 1 1-1-1m-674 1 1 1-1-1m672 0 1 1-1-1m-651 11 1 1-1-1m2 1 1 1-1-1m626 0 1 1-1-1m-624 1 1 1-1-1m622 0 1 1-1-1m-620 1 1 1-1-1m618 0 1 1-1-1m-616 1 1 1-1-1m614 0 1 1-1-1m-612 1 1 1-1-1m610 0 1 1-1-1m-608 1 1 1-1-1m606 0 1 1-1-1m-604 1 1 1-1-1m602 0 1 1-1-1m-600 1 1 1-1-1m598 0 1 1-1-1m-596 1 1 1-1-1m594 0 1 1-1-1m-592 1 1 1-1-1m590 0 1 1-1-1m-588 1 1 1-1-1m586 0 1 1-1-1m-584 1 1 1-1-1m582 0 1 1-1-1m-580 1 1 1-1-1m578 0 1 1-1-1m-576 1 1 1-1-1m574 0 1 1-1-1m-2 1 1 1-1-1m-551 10 1 1-1-1m2 1 1 1-1-1m528 0 1 1-1-1m-526 1 1 1-1-1m524 0 1 1-1-1m-522 1 1 1-1-1m520 0 1 1-1-1m-518 1 1 1-1-1m516 0 1 1-1-1m-514 1 1 1-1-1m512 0 1 1-1-1m-510 1 1 1-1-1m508 0 1 1-1-1m-506 1 1 1-1-1m504 0 1 1-1-1m-502 1 1 1-1-1m500 0 1 1-1-1m-498 1 1 1-1-1m496 0 1 1-1-1m-494 1 1 1-1-1m492 0 1 1-1-1m-490 1 1 1-1-1m488 0 1 1-1-1m-486 1 1 1-1-1m484 0 1 1-1-1m-482 1 1 1-1-1m480 0 1 1-1-1m-2 1 1 1-1-1m-2 1 1 1-1-1m-455 9 1 1zm-230 1.862c-5.204.599-10.473 4.968-15 7.357-10.617 5.602-21.44 10.761-32 16.472-35.228 19.052-93.731 35.35-80.37 87.309 1.801 7.004 4.92 13.301 9.385 18.999 10.411 13.283 28.205 20.858 42.985 28.248 25.694 12.847 51.733 25.397 77 39.062 101.587 54.941 205.695 106.285 309 157.941 21.023 10.51 42.324 20.88 63 32.06 25.052 13.55 52.473 28.33 82 25.52 26.327-2.51 47.853-14.93 71-26.58 30.761-15.49 61.401-31.2 92-46.99 104.04-53.703 208.42-106.849 313-159.508 18.7-9.417 37.7-18.722 56-28.891 8.7-4.832 18.83-9.622 25.71-16.951 19.44-20.711 19.4-56.454-2.75-75.445-8.65-7.42-19.93-11.545-29.96-16.723-17.68-9.125-35.21-18.598-53-27.495-7.91-3.956-21.19-14.477-30-14.466-8.97.011-22.91 10.927-31 14.972-25.46 12.732-50.54 26.27-76 39-65.27 32.635-129.73 66.86-195 99.494-23.783 11.891-47.104 26.238-72 35.689-37.622 14.282-77.584 17.548-117 9.615-38.699-7.789-73.14-29.874-108-47.304-64.602-32.301-128.398-66.193-193-98.494-25.796-12.898-51.202-26.607-77-39.506-7.051-3.526-21.156-14.288-29-13.385zM572 691l1 1-1-1m2 1 1 1-1-1m430 0 1 1-1-1m-659 1 1 1-1-1m231 0 1 1-1-1m426 0 1 1-1-1m-655 1 1 1-1-1m231 0 1 1-1-1m422 0 1 1-1-1m-651 1 1 1-1-1m231 0 1 1-1-1m418 0 1 1-1-1m231 0 1 1-1-1m-878 1 1 1-1-1m231 0 1 1-1-1m414 0 1 1-1-1m231 0 1 1-1-1m21 0 1 1-1-1m-920 1 1 1-1-1m25 0 1 1-1-1m231 0 1 1-1-1m410 0 1 1-1-1m231 0 1 1-1-1m25 0 1 1-1-1m-924 1 1 1-1-1m29 0 1 1-1-1m231 0 1 1-1-1m406 0 1 1-1-1m231 0 1 1-1-1m29 0 1 1-1-1m-928 1 1 1-1-1m33 0 1 1-1-1m231 0 1 1-1-1m402 0 1 1-1-1m231 0 1 1-1-1m33 0 1 1-1-1m-932 1 1 1-1-1m37 0 1 1-1-1m231 0 1 1-1-1m398 0 1 1-1-1m231 0 1 1-1-1m37 0 1 1-1-1m-936 1 1 1-1-1m41 0 1 1-1-1m231 0 1 1-1-1m394 0 1 1-1-1m231 0 1 1-1-1m41 0 1 1-1-1m-940 1 1 1-1-1m45 0 1 1-1-1m231 0 1 1-1-1m390 0 1 1-1-1m231 0 1 1-1-1m45 0 1 1-1-1m-944 1 1 1-1-1m49 0 1 1-1-1m231 0 1 1-1-1m386 0 1 1-1-1m231 0 1 1-1-1m49 0 1 1-1-1m-948 1 1 1-1-1m53 0 1 1-1-1m613 0 1 1-1-1m231 0 1 1-1-1m53 0 1 1-1-1m-952 1 1 1-1-1m57 0 1 1-1-1m609 0 1 1-1-1m231 0 1 1-1-1m57 0 1 1-1-1m-956 1 1 1-1-1m897 0 1 1-1-1m-2 1 1 1-1-1m76 6 1 1-1-1m-986 1 1 1-1-1m988 0 1 1-1-1m-990 1 1 1-1-1m95 0 1 1-1-1m231 0 1 1-1-1m666 0 1 1-1-1m-994 1 1 1-1-1m99 0 1 1-1-1m231 0 1 1-1-1m336 0 1 1-1-1m330 0 1 1-1-1m-998 1 1 1-1-1m103 0 1 1-1-1m231 0 1 1-1-1m332 0 1 1-1-1m231 0 1 1-1-1m103 0 1 1-1-1m-1002 1 1 1-1-1m107 0 1 1-1-1m231 0 1 1-1-1m328 0 1 1-1-1m231 0 1 1-1-1m107 0 1 1-1-1m-1006 1 1 1-1-1m111 0 1 1-1-1m231 0 1 1-1-1m324 0 1 1-1-1m231 0 1 1-1-1m111 0 1 1-1-1m-1010 1 1 1-1-1m115 0 1 1-1-1m231 0 1 1-1-1m320 0 1 1-1-1m231 0 1 1-1-1m115 0 1 1-1-1m-1014 1 1 1-1-1m119 0 1 1-1-1m231 0 1 1-1-1m316 0 1 1-1-1m231 0 1 1-1-1m119 0 1 1-1-1m-1018 1 1 1-1-1m123 0 1 1-1-1m231 0 1 1-1-1m312 0 1 1-1-1m231 0 1 1-1-1m123 0 1 1-1-1m-1022 1 1 1-1-1m127 0 1 1-1-1m231 0 1 1-1-1m308 0 1 1-1-1m231 0 1 1-1-1m127 0 1 1-1-1m-1026 1 1 1-1-1m131 0 1 1-1-1m231 0 1 1-1-1m304 0 1 1-1-1m231 0 1 1-1-1m-764 1 1 1-1-1m231 0 1 1-1-1m300 0 1 1-1-1m231 0 1 1-1-1m-760 1 1 1-1-1m231 0 1 1-1-1m296 0 1 1-1-1m231 0 1 1-1-1m-756 1 1 1-1-1m231 0 1 1-1-1m292 0 1 1-1-1m231 0 1 1-1-1m-752 1 1 1-1-1m231 0 1 1-1-1m288 0 1 1-1-1m231 0 1 1-1-1m-517 1 1 1-1-1m284 0 1 1-1-1m231 0 1 1-1-1m154 2 1 1-1-1m-1056 1 1 1-1-1m1058 0 1 1-1-1m-1060 1 1 1-1-1m1062 0 1 1-1-1m-1064 1 1 1-1-1m1066 0 1 1-1-1m-1068 1 1 1-1-1m1070 0 1 1-1-1m-1072 1 1 1-1-1m1074 0 1 1-1-1m-1076 1 1 1-1-1m1078 0 1 1-1-1m-1080 1 1 1-1-1m185 0 1 1-1-1m897 0 1 1-1-1m-1084 1 1 1-1-1m189 0 1 1-1-1m897 0 1 1-1-1m-1088 1 1 1-1-1m193 0 1 1-1-1m231 0 1 1-1-1m473 0 1 1-1-1m193 0 1 1-1-1m-1092 1 1 1-1-1m197 0 1 1-1-1m231 0 1 1-1-1m238 0 1 1-1-1m231 0 1 1-1-1m197 0 1 1-1-1m-1096 1 1 1-1-1m201 0 1 1-1-1m231 0 1 1-1-1m234 0 1 1-1-1m231 0 1 1-1-1m201 0 1 1-1-1m-1100 1 1 1-1-1m205 0 1 1-1-1m231 0 1 1-1-1m230 0 1 1-1-1m231 0 1 1-1-1m205 0 1 1-1-1m-1104 1 1 1-1-1m209 0 1 1-1-1m231 0 1 1-1-1m226 0 1 1-1-1m231 0 1 1-1-1m209 0 1 1-1-1m-895 1 1 1-1-1m231 0 1 1-1-1m222 0 1 1-1-1m231 0 1 1-1-1m-898 1 1 1-1-1m216 0 1 1-1-1m231 0 1 1-1-1m218 0 1 1-1-1m231 0 1 1-1-1m216 0 1 1-1-1m-894 1 1 1-1-1m231 0 1 1-1-1m214 0 1 1-1-1m231 0 1 1-1-1m-897 1-1 2 1-2m223 0 1 1-1-1m231 0 1 1-1-1m210 0 1 1-1-1m231 0 1 1-1-1m223 0 2 2-2-2m-893 1 1 1-1-1m231 0 1 1-1-1m206 0 1 1-1-1m231 0 1 1-1-1m-666 1 1 1-1-1m231 0 1 1-1-1m202 0 1 1-1-1m231 0 1 1-1-1m-431 1 1 1-1-1m198 0 1 1-1-1m231 0 1 1-1-1m-427 1 1 1-1-1m194 0 1 1-1-1m231 0 1 1-1-1m-423 1 1 1-1-1m190 0 1 1-1-1m-188 1 1 1-1-1m186 0 1 1-1-1m-2 1 1 1-1-1m475 0 2 2-2-2m-1133 1-1 2 1-2m-3 4 1 1-1-1m257 0 1 1-1-1m883 0 1 1-1-1m-881 1 1 1-1-1m2 1 1 1-1-1m618 0 1 1-1-1m-881 1 1 1-1-1m265 0 1 1-1-1m614 0 1 1-1-1m-612 1 1 1-1-1m610 0 1 1-1-1m-878 1 1 1-1-1m270 0 1 1-1-1m231 0 1 1-1-1m375 0 1 1-1-1m270 0 1 1-1-1m-874 1 1 1-1-1m231 0 1 1-1-1m140 0 1 1-1-1m231 0 1 1-1-1m-875 1 1 1-1-1m275 0 1 1-1-1m231 0 1 1-1-1m136 0 1 1-1-1m231 0 1 1-1-1m275 0 1 1-1-1m-871 1 1 1-1-1m231 0 1 1-1-1m132 0 1 1-1-1m231 0 1 1-1-1m-592 1 1 1-1-1m231 0 1 1-1-1m128 0 1 1-1-1m231 0 1 1-1-1m-588 1 1 1-1-1m231 0 1 1-1-1m124 0 1 1-1-1m231 0 1 1-1-1m-584 1 1 1-1-1m231 0 1 1-1-1m120 0 1 1-1-1m231 0 1 1-1-1m-867 1 1 1-1-1m287 0 1 1-1-1m231 0 1 1-1-1m116 0 1 1-1-1m231 0 1 1-1-1m287 0 1 1-1-1m-863 1 1 1-1-1m231 0 1 1-1-1m112 0 1 1-1-1m231 0 1 1-1-1m-341 1 1 1-1-1m108 0 1 1-1-1m231 0 1 1-1-1m-861.667 1.667.334.666-.334-.666M737 775l1 1-1-1m104 0 1 1-1-1m231 0 1 1-1-1m-333 1 1 1-1-1m100 0 1 1-1-1m527 0 1 1-1-1m-625 1 1 1-1-1m96 0 1 1-1-1m-626 3 1 1-1-1m537 0 1 1-1-1m82 0 1 1-1-1m537.33.667.34.666-.34-.666M750 781l1 1-1-1m3 1 1 1-1-1m72 0 1 1-1-1m-304 1 1 1-1-1m235 0 1 1-1-1m66 0 1 1-1-1m-299 1 1 1-1-1m236 0 1 1-1-1m60 0 1 1-1-1m-294 1 1 1-1-1m237 0 1 1-1-1m54 0 1 1-1-1m-289 1 1 1-1-1m239 0 1 1-1-1m46 0 1 1-1-1m239 0 1 1-1-1m-522 1 1 1-1-1m241.667.333.666.334-.666-.334m37 0 .666.334-.666-.334M1049 787l1 1-1-1m-518 1 1 1-1-1m245 0v1h3l-3-1m24 0v1h3l-3-1m247 0 1 1-1-1m-514 1 1 1-1-1m512 0 1 1-1-1m-510 1 1 1-1-1m508 0 1 1-1-1m-506 1 1 1-1-1m504 0 1 1-1-1m-502 1 1 1-1-1m500 0 1 1-1-1m-498 1 1 1-1-1m496 0 1 1-1-1m-494 1 1 1-1-1m492 0 1 1-1-1m-490 1 1 1-1-1m488 0 1 1-1-1m-2 1 1 1-1-1m-2 1 1 1-1-1m338.33.667.34.666-.34-.666M211 798l1 1-1-1m816 0 1 1-1-1m-815 4 1 1-1-1m1154 0 1 1-1-1m-802 3 1 1-1-1m-351 1 1 1-1-1m353 0 1 1-1-1m2 1 1 1-1-1m2 1 1 1-1-1m438 0 1 1-1-1m-436 1 1 1-1-1m434 0 1 1-1-1m-432 1 1 1-1-1m430 0 1 1-1-1m-789 1 1 1-1-1m361 0 1 1-1-1m426 0 1 1-1-1m-424 1 1 1-1-1m422 0 1 1-1-1m-784 1 1 1-1-1m364 0 1 1-1-1m418 0 1 1-1-1m-416 1 1 1-1-1m414 0 1 1-1-1m-779 1 1 1-1-1m367 0 1 1-1-1m410 0 1 1-1-1m-408 1 1 1-1-1m406 0 1 1-1-1m-404 1 1 1-1-1m402 0 1 1-1-1m-771 1 1 1-1-1m371 0 1 1-1-1m398 0 1 1-1-1m371 0 1 1-1-1m-767 1 1 1-1-1m394 0 1 1-1-1m-2 1 1 1-1-1m-2 1 1 1-1-1m-760 1 2 2-2-2m758 0 1 1-1-1m376 0-1 2 1-2m-1127 7 2 2-2-2m1120 0-1 2 1-2m-734 2 1 1-1-1m-382 1 1 1-1-1m384 0 1 1-1-1m728 0 1 1-1-1m-726 1 1 1-1-1m340 0 1 1-1-1m-723 1 1 1-1-1m385 0 1 1-1-1m336 0 1 1-1-1m385 0 1 1-1-1m-719 1 1 1-1-1m332 0 1 1-1-1m385 0 1 1-1-1m-715 1 1 1-1-1m328 0 1 1-1-1m385 0 1 1-1-1m-1096 1 1 1-1-1m385 0 1 1-1-1m324 0 1 1-1-1m385 0 1 1-1-1m-707 1 1 1-1-1m320 0 1 1-1-1m-705 1 1 1-1-1m387 0 1 1-1-1m316 0 1 1-1-1m387 0 1 1-1-1m-1088 1 1 1-1-1m387 0 1 1-1-1m312 0 1 1-1-1m387 0 1 1-1-1m-1084 1 1 1-1-1m387 0 1 1-1-1m308 0 1 1-1-1m387 0 1 1-1-1m-693 1 1 1-1-1m304 0 1 1-1-1m387 0 1 1-1-1m-689 1 1 1-1-1m300 0 1 1-1-1m387 0 1 1-1-1m-685 1 1 1-1-1m296 0 1 1-1-1m-2 1 1 1-1-1m-2 1 1 1-1-1m-2 1 1 1-1-1m-2 1 1 1-1-1m-658 5 1 1-1-1m2 1 1 1-1-1m1032 0 1 1-1-1m-1030 1 1 1-1-1m387 0 1 1-1-1m641 0 1 1-1-1m-1026 1 1 1-1-1m387 0 1 1-1-1m637 0 1 1-1-1m-1022 1 1 1-1-1m387 0 1 1-1-1m633 0 1 1-1-1m-1018 1 1 1-1-1m387 0 1 1-1-1m629 0 1 1-1-1m-1014 1 1 1-1-1m387 0 1 1-1-1m238 0 1 1-1-1m387 0 1 1-1-1m-1010 1 1 1-1-1m387 0 1 1-1-1m234 0 1 1-1-1m387 0 1 1-1-1m-1006 1 1 1-1-1m387 0 1 1-1-1m230 0 1 1-1-1m387 0 1 1-1-1m-1002 1 1 1-1-1m387 0 1 1-1-1m226 0 1 1-1-1m387 0 1 1-1-1m-998 1 1 1-1-1m387 0 1 1-1-1m222 0 1 1-1-1m387 0 1 1-1-1m-994 1 1 1-1-1m387 0 1 1-1-1m218 0 1 1-1-1m387 0 1 1-1-1m-990 1 1 1-1-1m387 0 1 1-1-1m214 0 1 1-1-1m387 0 1 1-1-1m-599 1 1 1-1-1m210 0 1 1-1-1m387 0 1 1-1-1m-595 1 1 1-1-1m206 0 1 1-1-1m387 0 1 1-1-1m-591 1 1 1-1-1m202 0 1 1-1-1m-200 1 1 1-1-1m198 0 1 1-1-1m-196 1 1 1-1-1m194 0 1 1-1-1m-192 1 1 1-1-1m190 0 1 1-1-1m-188 1 1 1-1-1m186 0 1 1-1-1m-184 1 1 1-1-1m182 0 1 1-1-1m-180 1 1 1-1-1m178 0 1 1-1-1m-176 1 1 1-1-1m2 1 1 1-1-1m-386 1 1 1-1-1m388 0 1 1-1-1m166 0 1 1-1-1m-552 1 1 1-1-1m938 0 1 1-1-1m-936 1 1 1-1-1m389 0 1 1-1-1m156 0 1 1-1-1m389 0 1 1-1-1m-932 1 1 1-1-1m541 0 1 1-1-1m389 0 1 1-1-1m-928 1 1 1-1-1m390 0 1 1-1-1m146 0 1 1-1-1m390 0 1 1-1-1m-924 1 1 1-1-1m391 0 1 1-1-1m140 0 1 1-1-1m391 0 1 1-1-1m-920 1 1 1-1-1m918 0 1 1-1-1m-916 1 1 1-1-1m392 0 1 1-1-1m130 0 1 1-1-1m392 0 1 1-1-1m-912 1 1 1-1-1m394 0 1 1-1-1m122 0 1 1-1-1m394 0 1 1-1-1m-908 1 1 1-1-1m395 0 1 1-1-1m116 0 1 1-1-1m395 0 1 1-1-1m-904 1 1 1-1-1m396 0 1 1-1-1m110 0 1 1-1-1m396 0 1 1-1-1m-900 1 1 1-1-1m398 0 1 1-1-1m102 0 1 1-1-1m398 0 1 1-1-1m-896 1 1 1-1-1m400 0 1 1-1-1m94 0 1 1-1-1m400 0 1 1-1-1m-892 1 1 1-1-1m402.667.333.666.334-.666-.334m85 0 .666.334-.666-.334M1234 890l1 1-1-1m-482 1 1 1-1-1m74 0 1 1-1-1m-68.333 1.333.666.334-.666-.334m63 0 .666.334-.666-.334m-55 1 .666.334-.666-.334m47 0 .666.334-.666-.334M775 894v1h4l-4-1m25 0v1h4l-4-1m-437 6 1 1-1-1m2 1 1 1-1-1m2 1 1 1-1-1m844 0 1 1-1-1m-842 1 1 1-1-1m840 0 1 1-1-1m-838 1 1 1-1-1m836 0 1 1-1-1m-834 1 1 1-1-1m832 0 1 1-1-1m-830 1 1 1-1-1m828 0 1 1-1-1m-826 1 1 1-1-1m824 0 1 1-1-1m-822 1 1 1-1-1m820 0 1 1-1-1m-818 1 1 1-1-1m816 0 1 1-1-1m-814 1 1 1-1-1m812 0 1 1-1-1m-810 1 1 1-1-1m808 0 1 1-1-1m-806 1 1 1-1-1m804 0 1 1-1-1m-802 1 1 1-1-1m800 0 1 1-1-1m-798 1 1 1-1-1m796 0 1 1-1-1m-2 1 1 1-1-1m-775 9 1 1-1-1m2 1 1 1-1-1m754 0 1 1-1-1m-752 1 1 1-1-1m750 0 1 1-1-1m-748 1 1 1-1-1m746 0 1 1-1-1m-744 1 1 1-1-1m742 0 1 1-1-1m-740 1 1 1-1-1m738 0 1 1-1-1m-736 1 1 1-1-1m734 0 1 1-1-1m-732 1 1 1-1-1m730 0 1 1-1-1m-728 1 1 1-1-1m726 0 1 1-1-1m-724 1 1 1-1-1m722 0 1 1-1-1m-720 1 1 1-1-1m718 0 1 1-1-1m-716 1 1 1-1-1m714 0 1 1-1-1m-712 1 1 1-1-1m710 0 1 1-1-1m-708 1 1 1-1-1m706 0 1 1-1-1m-2 1 1 1-1-1m-2 1 1 1-1-1m-681 9 1 1-1-1m2 1 1 1-1-1m660 0 1 1-1-1m-658 1 1 1-1-1m656 0 1 1-1-1m-654 1 1 1-1-1m652 0 1 1-1-1m-650 1 1 1-1-1m648 0 1 1-1-1m-646 1 1 1-1-1m644 0 1 1-1-1m-642 1 1 1-1-1m640 0 1 1-1-1m-638 1 1 1-1-1m636 0 1 1-1-1m-634 1 1 1-1-1m632 0 1 1-1-1m-630 1 1 1-1-1m628 0 1 1-1-1m-626 1 1 1-1-1m624 0 1 1-1-1m-622 1 1 1-1-1m620 0 1 1-1-1m-618 1 1 1-1-1m616 0 1 1-1-1m-614 1 1 1-1-1m612 0 1 1-1-1m-2 1 1 1-1-1m-589 10 1 1-1-1m2 1 1 1-1-1m566 0 1 1-1-1m-564 1 1 1-1-1m562 0 1 1-1-1m-560 1 1 1-1-1m558 0 1 1-1-1m-556 1 1 1-1-1m554 0 1 1-1-1m-552 1 1 1-1-1m550 0 1 1-1-1m-548 1 1 1-1-1m546 0 1 1-1-1m-544 1 1 1-1-1m542 0 1 1-1-1m-540 1 1 1-1-1m538 0 1 1-1-1m-536 1 1 1-1-1m534 0 1 1-1-1m-532 1 1 1-1-1m530 0 1 1-1-1m-528 1 1 1-1-1m526 0 1 1-1-1m-524 1 1 1-1-1m522 0 1 1-1-1m-2 1 1 1-1-1m-2 1 1 1-1-1m-495 10 1 1-1-1m2 1 1 1-1-1m472 0 1 1-1-1m-470 1 1 1-1-1m468 0 1 1-1-1m-466 1 1 1-1-1m464 0 1 1-1-1m-462 1 1 1-1-1m460 0 1 1-1-1m-458 1 1 1-1-1m456 0 1 1-1-1m-454 1 1 1-1-1m452 0 1 1-1-1m-450 1 1 1-1-1m448 0 1 1-1-1m-446 1 1 1-1-1m444 0 1 1-1-1m-442 1 1 1-1-1m440 0 1 1-1-1m-438 1 1 1-1-1m436 0 1 1-1-1m-668 1 1 1zm1 .85c-13.651 1.79-29.735 14.77-42 20.9-22.393 11.2-52.49 21.47-70.985 38.42-19.425 17.81-21.06 49.18-5.537 69.83 10.801 14.36 29.024 21.26 44.522 29.26 28.61 14.77 57.197 29.59 86 43.99 100.128 50.06 198.925 102.83 299 153 25.728 12.89 51.295 26.05 77 39 20.175 10.16 42.631 20.81 66 18.58 25.554-2.43 46.407-13.29 69-24.58 28.134-14.07 55.869-28.94 84-43 107.8-53.9 214.21-110.59 322-164.5 16.07-8.03 31.94-16.47 48-24.5 13.38-6.7 27.62-13.08 37.91-24.25 18.88-20.51 17.1-55.24-3.92-73.7-8.77-7.69-20.62-12.36-30.99-17.55-17.07-8.53-34.04-17.26-51-26.01-8.35-4.31-21.42-14.96-31-14.96-10.19 0-24.07 11.47-33 15.97-28.73 14.47-57.71 28.64-86 43.94-57.82 31.27-117.28 59.99-176 89.56-28.313 14.25-56.074 31.42-86 42.06-35.813 12.73-73.992 14.35-111 6.69-41.233-8.54-78.958-32.62-116-51.74-58.086-29.98-117.834-57.43-175-89.12-27.122-15.04-55.3-28.44-83-42.39-8.044-4.05-22.753-16.11-32-14.9z"/>
  <path fill="#4d4d4d" d="m780.667 158.333.666.334zm1.333.091c-24.488 3.255-44.191 13.418-66 24.329-26.135 13.076-51.868 26.934-78 40-99.535 49.767-197.471 102.729-297 152.494-27.138 13.569-53.866 27.939-81 41.506-22.775 11.388-45.055 22.114-48.711 50.247-4.282 32.95 20.231 49.528 45.711 63.309 24.349 13.168 49.239 25.557 74 37.938 104.889 52.445 210.852 104.276 314 160.062 25.005 13.523 50.571 26.224 76 38.938 24.575 12.287 49.581 24.867 78 21.467 23.027-2.754 42.562-13.248 63-23.467 26.795-13.397 53.208-27.604 80-41 99.74-49.869 198.27-102.134 298-152 27.79-13.893 55.53-27.97 83-42.466 21.65-11.424 42.16-24.051 44.83-50.781 3.76-37.65-28.46-52.064-56.83-66.247-21.13-10.564-41.87-21.942-63-32.506-106.7-53.348-214.08-106.81-319-163.556-23.726-12.831-48.03-24.577-72-36.95-22.856-11.797-48.3-24.865-75-21.317Zm14-.424v1h3l-3-1m-23.333 1.333.666.334-.666-.334m33 0 .666.334-.666-.334m-38 1 .666.334-.666-.334M810 160l1 1-1-1m-47 1 1 1-1-1m52 0 1 1-1-1m-55 1 1 1-1-1m58 0 1 1-1-1m-61 1 1 1-1-1m64 0 1 1-1-1m-67 1 1 1-1-1m70 0 1 1-1-1m-73 1 1 1-1-1m-2 1 1 1-1-1m80 0 1 1-1-1m23 11 1 1-1-1m-128 1 1 1-1-1m130 0 1 1-1-1m-132 1 1 1-1-1m134 0 1 1-1-1m-136 1 1 1-1-1m138 0 1 1-1-1m-140 1 1 1-1-1m142 0 1 1-1-1m-144 1 1 1-1-1m146 0 1 1-1-1m-148 1 1 1-1-1m150 0 1 1-1-1m-152 1 1 1-1-1m154 0 1 1-1-1m-156 1 1 1-1-1m158 0 1 1-1-1m-160 1 1 1-1-1m162 0 1 1-1-1m-164 1 1 1-1-1m166 0 1 1-1-1m-168 1 1 1-1-1m185 8 1 1-1-1m-202 1 1 1-1-1m204 0 1 1-1-1m-206 1 1 1-1-1m208 0 1 1-1-1m-210 1 1 1-1-1m212 0 1 1-1-1m-214 1 1 1-1-1m216 0 1 1-1-1m-218 1 1 1-1-1m220 0 1 1-1-1m-222 1 1 1-1-1m224 0 1 1-1-1m-226 1 1 1-1-1m228 0 1 1-1-1m-230 1 1 1-1-1m232 0 1 1-1-1m-234 1 1 1-1-1m236 0 1 1-1-1m-238 1 1 1-1-1m240 0 1 1-1-1m-242 1 1 1-1-1m259 8 1 1-1-1m-276 1 1 1-1-1m278 0 1 1-1-1m-280 1 1 1-1-1m282 0 1 1-1-1m-284 1 1 1-1-1m286 0 1 1-1-1m-288 1 1 1-1-1m290 0 1 1-1-1m-292 1 1 1-1-1m294 0 1 1-1-1m-296 1 1 1-1-1m298 0 1 1-1-1m-300 1 1 1-1-1m302 0 1 1-1-1m-304 1 1 1-1-1m306 0 1 1-1-1m-308 1 1 1-1-1m310 0 1 1-1-1m-312 1 1 1-1-1m314 0 1 1-1-1m-316 1 1 1-1-1m333 8 1 1-1-1m-350 1 1 1-1-1m352 0 1 1-1-1m-354 1 1 1-1-1m356 0 1 1-1-1m-358 1 1 1-1-1m360 0 1 1-1-1m-362 1 1 1-1-1m364 0 1 1-1-1m-366 1 1 1-1-1m368 0 1 1-1-1m-370 1 1 1-1-1m372 0 1 1-1-1m-374 1 1 1-1-1m376 0 1 1-1-1m-378 1 1 1-1-1m380 0 1 1-1-1m-382 1 1 1-1-1m384 0 1 1-1-1m-386 1 1 1-1-1m388 0 1 1-1-1m-390 1 1 1-1-1m409 9 1 1-1-1m-428 1 1 1-1-1m430 0 1 1-1-1m-432 1 1 1-1-1m434 0 1 1-1-1m-436 1 1 1-1-1m438 0 1 1-1-1m-440 1 1 1-1-1m442 0 1 1-1-1m-444 1 1 1-1-1m446 0 1 1-1-1m-448 1 1 1-1-1m450 0 1 1-1-1m-452 1 1 1-1-1m454 0 1 1-1-1m-456 1 1 1-1-1m458 0 1 1-1-1m-460 1 1 1-1-1m462 0 1 1-1-1m-464 1 1 1-1-1m483 9 1 1-1-1m-502 1 1 1-1-1m504 0 1 1-1-1m-506 1 1 1-1-1m508 0 1 1-1-1m-510 1 1 1-1-1m512 0 1 1-1-1m-514 1 1 1-1-1m516 0 1 1-1-1m-518 1 1 1-1-1m520 0 1 1-1-1m-522 1 1 1-1-1m524 0 1 1-1-1m-526 1 1 1-1-1m528 0 1 1-1-1m-530 1 1 1-1-1m532 0 1 1-1-1m-534 1 1 1-1-1m536 0 1 1-1-1m-538 1 1 1-1-1m540 0 1 1-1-1m-542 1 1 1-1-1m557 7 1 1-1-1m-572 1 1 1-1-1m574 0 1 1-1-1m-576 1 1 1-1-1m578 0 1 1-1-1m-580 1 1 1-1-1m582 0 1 1-1-1m-584 1 1 1-1-1m586 0 1 1-1-1m-588 1 1 1-1-1m590 0 1 1-1-1m-592 1 1 1-1-1m594 0 1 1-1-1m-596 1 1 1-1-1m598 0 1 1-1-1m-600 1 1 1-1-1m602 0 1 1-1-1m-604 1 1 1-1-1m606 0 1 1-1-1m-608 1 1 1-1-1m610 0 1 1-1-1m-612 1 1 1-1-1m614 0 1 1-1-1m-616 1 1 1-1-1m631 7 1 1-1-1m-646 1 1 1-1-1m648 0 1 1-1-1m-650 1 1 1-1-1m652 0 1 1-1-1m-654 1 1 1-1-1m656 0 1 1-1-1m-658 1 1 1-1-1m660 0 1 1-1-1m-662 1 1 1-1-1m664 0 1 1-1-1m-666 1 1 1-1-1m668 0 1 1-1-1m-670 1 1 1-1-1m672 0 1 1-1-1m-674 1 1 1-1-1m676 0 1 1-1-1m-678 1 1 1-1-1m680 0 1 1-1-1m-682 1 1 1-1-1m684 0 1 1-1-1m-686 1 1 1-1-1m688 0 1 1-1-1m-690 1 1 1-1-1m707 8 1 1-1-1m-724 1 1 1-1-1m726 0 1 1-1-1m-728 1 1 1-1-1m730 0 1 1-1-1m-732 1 1 1-1-1m734 0 1 1-1-1m-736 1 1 1-1-1m738 0 1 1-1-1m-740 1 1 1-1-1m742 0 1 1-1-1m-744 1 1 1-1-1m746 0 1 1-1-1m-748 1 1 1-1-1m750 0 1 1-1-1m-752 1 1 1-1-1m754 0 1 1-1-1m-756 1 1 1-1-1m758 0 1 1-1-1m-760 1 1 1-1-1m762 0 1 1-1-1m-764 1 1 1-1-1m781 8 1 1-1-1m-798 1 1 1-1-1m800 0 1 1-1-1m-802 1 1 1-1-1m804 0 1 1-1-1m-806 1 1 1-1-1m808 0 1 1-1-1m-810 1 1 1-1-1m812 0 1 1-1-1m-814 1 1 1-1-1m816 0 1 1-1-1m-818 1 1 1-1-1m820 0 1 1-1-1m-822 1 1 1-1-1m824 0 1 1-1-1m-826 1 1 1-1-1m828 0 1 1-1-1m-830 1 1 1-1-1m832 0 1 1-1-1m-834 1 1 1-1-1m836 0 1 1-1-1m-838 1 1 1-1-1m855 8 1 1-1-1m-872 1 1 1-1-1m874 0 1 1-1-1m-876 1 1 1-1-1m878 0 1 1-1-1m-880 1 1 1-1-1m882 0 1 1-1-1m-884 1 1 1-1-1m886 0 1 1-1-1m-888 1 1 1-1-1m890 0 1 1-1-1m-892 1 1 1-1-1m894 0 1 1-1-1m-896 1 1 1-1-1m898 0 1 1-1-1m-900 1 1 1-1-1m902 0 1 1-1-1m-904 1 1 1-1-1m906 0 1 1-1-1m-908 1 1 1-1-1m910 0 1 1-1-1m-912 1 1 1-1-1m929 8 1 1-1-1m-946 1 1 1-1-1m948 0 1 1-1-1m-950 1 1 1-1-1m952 0 1 1-1-1m-954 1 1 1-1-1m956 0 1 1-1-1m-958 1 1 1-1-1m960 0 1 1-1-1m-962 1 1 1-1-1m964 0 1 1-1-1m-966 1 1 1-1-1m968 0 1 1-1-1m-970 1 1 1-1-1m972 0 1 1-1-1m-974 1 1 1-1-1m976 0 1 1-1-1m-978 1 1 1-1-1m980 0 1 1-1-1m-982 1 1 1-1-1m984 0 1 1-1-1m-986 1 1 1-1-1m1005 9 1 1-1-1m-1024 1 1 1-1-1m1026 0 1 1-1-1m-1028 1 1 1-1-1m1030 0 1 1-1-1m-1032 1 1 1-1-1m1034 0 1 1-1-1m-1036 1 1 1-1-1m1038 0 1 1-1-1m-1040 1 1 1-1-1m1042 0 1 1-1-1m-1044 1 1 1-1-1m1046 0 1 1-1-1m-1048 1 1 1-1-1m1050 0 1 1-1-1m-1052 1 1 1-1-1m1054 0 1 1-1-1m-1056 1 1 1-1-1m1058 0 1 1-1-1m-1060 1 1 1-1-1m-18 9 1 1-1-1m-2 1 1 1-1-1m1105 2 1 1-1-1m-1110 1 1 1-1-1m1112 0 2 2-2-2m-1116 3-2 3 2-3m1120 0 7 7-7-7m-1124 4-3 4 3-4m-5 6-1 2 1-2m1138 0 1 1-1-1m2 3 1 1-1-1m-1146 8 1 1-1-1m1150 0 1 1-1-1m-1151 2 1 1-1-1m-1 4 1 1-1-1m1154 0 1 1-1-1m-1154.667 4.667.334.666-.334-.666m1155.997 0 .34.666-.34-.666m0 17 .34.666-.34-.666M211 482l1 1-1-1m1155 4 1 1-1-1m-1154 1 1 1-1-1m1 3 1 1-1-1m1152 0 1 1-1-1m-1151 3 1 1-1-1m1 2 1 1-1-1m1148 0 1 1-1-1m-1147 2 1 1-1-1m1146 0 1 1-1-1m-1145 2 1 1-1-1m1144 0 1 1-1-1m-1142 3 1 1-1-1m1140 0 1 1-1-1m-1138 3 1 1-1-1m1136 0-1 2 1-2m-1127 9 2 2-2-2m1118 0-1 2 1-2m-1114 3 1 1-1-1m1110 0 1 1-1-1m-1105 3 1 1-1-1m1100 0 1 1-1-1m-1096 3 1 1-1-1m1092 0 1 1-1-1m-1090 1 1 1-1-1m1088 0 1 1-1-1m-1086 1 1 1-1-1m1084 0 1 1-1-1m-1082 1 1 1-1-1m1080 0 1 1-1-1m-1078 1 1 1-1-1m1076 0 1 1-1-1m-1074 1 1 1-1-1m1072 0 1 1-1-1m-1070 1 1 1-1-1m1068 0 1 1-1-1m-1066 1 1 1-1-1m1064 0 1 1-1-1m-1062 1 1 1-1-1m1060 0 1 1-1-1M280 542l1 1-1-1m2 1 1 1-1-1m1014 0 1 1-1-1m-1012 1 1 1-1-1m1010 0 1 1-1-1m-1008 1 1 1-1-1m1006 0 1 1-1-1m-1004 1 1 1-1-1m1002 0 1 1-1-1m-1000 1 1 1-1-1m998 0 1 1-1-1m-996 1 1 1-1-1m994 0 1 1-1-1m-992 1 1 1-1-1m990 0 1 1-1-1m-988 1 1 1-1-1m986 0 1 1-1-1m-984 1 1 1-1-1m982 0 1 1-1-1m-980 1 1 1-1-1m978 0 1 1-1-1m-976 1 1 1-1-1m974 0 1 1-1-1m-972 1 1 1-1-1m970 0 1 1-1-1m-968 1 1 1-1-1m966 0 1 1-1-1m-964 1 1 1-1-1m962 0 1 1-1-1m-2 1 1 1-1-1m-939 10 1 1-1-1m2 1 1 1-1-1m916 0 1 1-1-1m-914 1 1 1-1-1m912 0 1 1-1-1m-910 1 1 1-1-1m908 0 1 1-1-1m-906 1 1 1-1-1m904 0 1 1-1-1m-902 1 1 1-1-1m900 0 1 1-1-1m-898 1 1 1-1-1m896 0 1 1-1-1m-894 1 1 1-1-1m892 0 1 1-1-1m-890 1 1 1-1-1m888 0 1 1-1-1m-886 1 1 1-1-1m884 0 1 1-1-1m-882 1 1 1-1-1m880 0 1 1-1-1m-878 1 1 1-1-1m876 0 1 1-1-1m-874 1 1 1-1-1m872 0 1 1-1-1m-870 1 1 1-1-1m868 0 1 1-1-1m-2 1 1 1-1-1m-2 1 1 1-1-1m-843 9 1 1-1-1m2 1 1 1-1-1m2 1 1 1-1-1m818 0 1 1-1-1m-816 1 1 1-1-1m814 0 1 1-1-1m-812 1 1 1-1-1m810 0 1 1-1-1m-808 1 1 1-1-1m806 0 1 1-1-1m-804 1 1 1-1-1m802 0 1 1-1-1m-800 1 1 1-1-1m798 0 1 1-1-1m-796 1 1 1-1-1m794 0 1 1-1-1m-792 1 1 1-1-1m790 0 1 1-1-1m-788 1 1 1-1-1m786 0 1 1-1-1m-784 1 1 1-1-1m782 0 1 1-1-1m-780 1 1 1-1-1m778 0 1 1-1-1m-776 1 1 1-1-1m774 0 1 1-1-1m-2 1 1 1-1-1m-2 1 1 1-1-1m-747 10 1 1-1-1m2 1 1 1-1-1m724 0 1 1-1-1m-722 1 1 1-1-1m720 0 1 1-1-1m-718 1 1 1-1-1m716 0 1 1-1-1m-714 1 1 1-1-1m712 0 1 1-1-1m-710 1 1 1-1-1m708 0 1 1-1-1m-706 1 1 1-1-1m704 0 1 1-1-1m-702 1 1 1-1-1m700 0 1 1-1-1m-698 1 1 1-1-1m696 0 1 1-1-1m-694 1 1 1-1-1m692 0 1 1-1-1m-690 1 1 1-1-1m688 0 1 1-1-1m-686 1 1 1-1-1m684 0 1 1-1-1m-682 1 1 1-1-1m680 0 1 1-1-1m-678 1 1 1-1-1m676 0 1 1-1-1m-674 1 1 1-1-1m672 0 1 1-1-1m-651 11 1 1-1-1m2 1 1 1-1-1m626 0 1 1-1-1m-624 1 1 1-1-1m622 0 1 1-1-1m-620 1 1 1-1-1m618 0 1 1-1-1m-616 1 1 1-1-1m614 0 1 1-1-1m-612 1 1 1-1-1m610 0 1 1-1-1m-608 1 1 1-1-1m606 0 1 1-1-1m-604 1 1 1-1-1m602 0 1 1-1-1m-600 1 1 1-1-1m598 0 1 1-1-1m-596 1 1 1-1-1m594 0 1 1-1-1m-592 1 1 1-1-1m590 0 1 1-1-1m-588 1 1 1-1-1m586 0 1 1-1-1m-584 1 1 1-1-1m582 0 1 1-1-1m-580 1 1 1-1-1m578 0 1 1-1-1m-576 1 1 1-1-1m574 0 1 1-1-1m-2 1 1 1-1-1m-551 10 1 1-1-1m2 1 1 1-1-1m528 0 1 1-1-1m-526 1 1 1-1-1m524 0 1 1-1-1m-522 1 1 1-1-1m520 0 1 1-1-1m-518 1 1 1-1-1m516 0 1 1-1-1m-514 1 1 1-1-1m512 0 1 1-1-1m-510 1 1 1-1-1m508 0 1 1-1-1m-506 1 1 1-1-1m504 0 1 1-1-1m-502 1 1 1-1-1m500 0 1 1-1-1m-498 1 1 1-1-1m496 0 1 1-1-1m-494 1 1 1-1-1m492 0 1 1-1-1m-490 1 1 1-1-1m488 0 1 1-1-1m-486 1 1 1-1-1m484 0 1 1-1-1m-482 1 1 1-1-1m480 0 1 1-1-1m-2 1 1 1-1-1m-2 1 1 1-1-1m-455 9 1 1zm-230 1.862c-5.204.599-10.473 4.968-15 7.357-10.617 5.602-21.44 10.761-32 16.472-35.228 19.052-93.731 35.35-80.37 87.309 1.801 7.004 4.92 13.301 9.385 18.999 10.411 13.283 28.205 20.858 42.985 28.248 25.694 12.847 51.733 25.397 77 39.062 101.587 54.941 205.695 106.285 309 157.941 21.023 10.51 42.324 20.88 63 32.06 25.052 13.55 52.473 28.33 82 25.52 26.327-2.51 47.853-14.93 71-26.58 30.761-15.49 61.401-31.2 92-46.99 104.04-53.703 208.42-106.849 313-159.508 18.7-9.417 37.7-18.722 56-28.891 8.7-4.832 18.83-9.622 25.71-16.951 19.44-20.711 19.4-56.454-2.75-75.445-8.65-7.42-19.93-11.545-29.96-16.723-17.68-9.125-35.21-18.598-53-27.495-7.91-3.956-21.19-14.477-30-14.466-8.97.011-22.91 10.927-31 14.972-25.46 12.732-50.54 26.27-76 39-65.27 32.635-129.73 66.86-195 99.494-23.783 11.891-47.104 26.238-72 35.689-37.622 14.282-77.584 17.548-117 9.615-38.699-7.789-73.14-29.874-108-47.304-64.602-32.301-128.398-66.193-193-98.494-25.796-12.898-51.202-26.607-77-39.506-7.051-3.526-21.156-14.288-29-13.385zM572 691l1 1-1-1m2 1 1 1-1-1m430 0 1 1-1-1m-659 1 1 1-1-1m231 0 1 1-1-1m426 0 1 1-1-1m-655 1 1 1-1-1m231 0 1 1-1-1m422 0 1 1-1-1m-651 1 1 1-1-1m231 0 1 1-1-1m418 0 1 1-1-1m231 0 1 1-1-1m-878 1 1 1-1-1m231 0 1 1-1-1m414 0 1 1-1-1m231 0 1 1-1-1m21 0 1 1-1-1m-920 1 1 1-1-1m25 0 1 1-1-1m231 0 1 1-1-1m410 0 1 1-1-1m231 0 1 1-1-1m25 0 1 1-1-1m-924 1 1 1-1-1m29 0 1 1-1-1m231 0 1 1-1-1m406 0 1 1-1-1m231 0 1 1-1-1m29 0 1 1-1-1m-928 1 1 1-1-1m33 0 1 1-1-1m231 0 1 1-1-1m402 0 1 1-1-1m231 0 1 1-1-1m33 0 1 1-1-1m-932 1 1 1-1-1m37 0 1 1-1-1m231 0 1 1-1-1m398 0 1 1-1-1m231 0 1 1-1-1m37 0 1 1-1-1m-936 1 1 1-1-1m41 0 1 1-1-1m231 0 1 1-1-1m394 0 1 1-1-1m231 0 1 1-1-1m41 0 1 1-1-1m-940 1 1 1-1-1m45 0 1 1-1-1m231 0 1 1-1-1m390 0 1 1-1-1m231 0 1 1-1-1m45 0 1 1-1-1m-944 1 1 1-1-1m49 0 1 1-1-1m231 0 1 1-1-1m386 0 1 1-1-1m231 0 1 1-1-1m49 0 1 1-1-1m-948 1 1 1-1-1m53 0 1 1-1-1m613 0 1 1-1-1m231 0 1 1-1-1m53 0 1 1-1-1m-952 1 1 1-1-1m57 0 1 1-1-1m609 0 1 1-1-1m231 0 1 1-1-1m57 0 1 1-1-1m-956 1 1 1-1-1m897 0 1 1-1-1m-2 1 1 1-1-1m76 6 1 1-1-1m-986 1 1 1-1-1m988 0 1 1-1-1m-990 1 1 1-1-1m95 0 1 1-1-1m231 0 1 1-1-1m666 0 1 1-1-1m-994 1 1 1-1-1m99 0 1 1-1-1m231 0 1 1-1-1m336 0 1 1-1-1m330 0 1 1-1-1m-998 1 1 1-1-1m103 0 1 1-1-1m231 0 1 1-1-1m332 0 1 1-1-1m231 0 1 1-1-1m103 0 1 1-1-1m-1002 1 1 1-1-1m107 0 1 1-1-1m231 0 1 1-1-1m328 0 1 1-1-1m231 0 1 1-1-1m107 0 1 1-1-1m-1006 1 1 1-1-1m111 0 1 1-1-1m231 0 1 1-1-1m324 0 1 1-1-1m231 0 1 1-1-1m111 0 1 1-1-1m-1010 1 1 1-1-1m115 0 1 1-1-1m231 0 1 1-1-1m320 0 1 1-1-1m231 0 1 1-1-1m115 0 1 1-1-1m-1014 1 1 1-1-1m119 0 1 1-1-1m231 0 1 1-1-1m316 0 1 1-1-1m231 0 1 1-1-1m119 0 1 1-1-1m-1018 1 1 1-1-1m123 0 1 1-1-1m231 0 1 1-1-1m312 0 1 1-1-1m231 0 1 1-1-1m123 0 1 1-1-1m-1022 1 1 1-1-1m127 0 1 1-1-1m231 0 1 1-1-1m308 0 1 1-1-1m231 0 1 1-1-1m127 0 1 1-1-1m-1026 1 1 1-1-1m131 0 1 1-1-1m231 0 1 1-1-1m304 0 1 1-1-1m231 0 1 1-1-1m-764 1 1 1-1-1m231 0 1 1-1-1m300 0 1 1-1-1m231 0 1 1-1-1m-760 1 1 1-1-1m231 0 1 1-1-1m296 0 1 1-1-1m231 0 1 1-1-1m-756 1 1 1-1-1m231 0 1 1-1-1m292 0 1 1-1-1m231 0 1 1-1-1m-752 1 1 1-1-1m231 0 1 1-1-1m288 0 1 1-1-1m231 0 1 1-1-1m-517 1 1 1-1-1m284 0 1 1-1-1m231 0 1 1-1-1m154 2 1 1-1-1m-1056 1 1 1-1-1m1058 0 1 1-1-1m-1060 1 1 1-1-1m1062 0 1 1-1-1m-1064 1 1 1-1-1m1066 0 1 1-1-1m-1068 1 1 1-1-1m1070 0 1 1-1-1m-1072 1 1 1-1-1m1074 0 1 1-1-1m-1076 1 1 1-1-1m1078 0 1 1-1-1m-1080 1 1 1-1-1m185 0 1 1-1-1m897 0 1 1-1-1m-1084 1 1 1-1-1m189 0 1 1-1-1m897 0 1 1-1-1m-1088 1 1 1-1-1m193 0 1 1-1-1m231 0 1 1-1-1m473 0 1 1-1-1m193 0 1 1-1-1m-1092 1 1 1-1-1m197 0 1 1-1-1m231 0 1 1-1-1m238 0 1 1-1-1m231 0 1 1-1-1m197 0 1 1-1-1m-1096 1 1 1-1-1m201 0 1 1-1-1m231 0 1 1-1-1m234 0 1 1-1-1m231 0 1 1-1-1m201 0 1 1-1-1m-1100 1 1 1-1-1m205 0 1 1-1-1m231 0 1 1-1-1m230 0 1 1-1-1m231 0 1 1-1-1m205 0 1 1-1-1m-1104 1 1 1-1-1m209 0 1 1-1-1m231 0 1 1-1-1m226 0 1 1-1-1m231 0 1 1-1-1m209 0 1 1-1-1m-895 1 1 1-1-1m231 0 1 1-1-1m222 0 1 1-1-1m231 0 1 1-1-1m-898 1 1 1-1-1m216 0 1 1-1-1m231 0 1 1-1-1m218 0 1 1-1-1m231 0 1 1-1-1m216 0 1 1-1-1m-894 1 1 1-1-1m231 0 1 1-1-1m214 0 1 1-1-1m231 0 1 1-1-1m-897 1-1 2 1-2m223 0 1 1-1-1m231 0 1 1-1-1m210 0 1 1-1-1m231 0 1 1-1-1m223 0 2 2-2-2m-893 1 1 1-1-1m231 0 1 1-1-1m206 0 1 1-1-1m231 0 1 1-1-1m-666 1 1 1-1-1m231 0 1 1-1-1m202 0 1 1-1-1m231 0 1 1-1-1m-431 1 1 1-1-1m198 0 1 1-1-1m231 0 1 1-1-1m-427 1 1 1-1-1m194 0 1 1-1-1m231 0 1 1-1-1m-423 1 1 1-1-1m190 0 1 1-1-1m-188 1 1 1-1-1m186 0 1 1-1-1m-2 1 1 1-1-1m475 0 2 2-2-2m-1133 1-1 2 1-2m-3 4 1 1-1-1m257 0 1 1-1-1m883 0 1 1-1-1m-881 1 1 1-1-1m2 1 1 1-1-1m618 0 1 1-1-1m-881 1 1 1-1-1m265 0 1 1-1-1m614 0 1 1-1-1m-612 1 1 1-1-1m610 0 1 1-1-1m-878 1 1 1-1-1m270 0 1 1-1-1m231 0 1 1-1-1m375 0 1 1-1-1m270 0 1 1-1-1m-874 1 1 1-1-1m231 0 1 1-1-1m140 0 1 1-1-1m231 0 1 1-1-1m-875 1 1 1-1-1m275 0 1 1-1-1m231 0 1 1-1-1m136 0 1 1-1-1m231 0 1 1-1-1m275 0 1 1-1-1m-871 1 1 1-1-1m231 0 1 1-1-1m132 0 1 1-1-1m231 0 1 1-1-1m-592 1 1 1-1-1m231 0 1 1-1-1m128 0 1 1-1-1m231 0 1 1-1-1m-588 1 1 1-1-1m231 0 1 1-1-1m124 0 1 1-1-1m231 0 1 1-1-1m-584 1 1 1-1-1m231 0 1 1-1-1m120 0 1 1-1-1m231 0 1 1-1-1m-867 1 1 1-1-1m287 0 1 1-1-1m231 0 1 1-1-1m116 0 1 1-1-1m231 0 1 1-1-1m287 0 1 1-1-1m-863 1 1 1-1-1m231 0 1 1-1-1m112 0 1 1-1-1m231 0 1 1-1-1m-341 1 1 1-1-1m108 0 1 1-1-1m231 0 1 1-1-1m-861.667 1.667.334.666-.334-.666M737 775l1 1-1-1m104 0 1 1-1-1m231 0 1 1-1-1m-333 1 1 1-1-1m100 0 1 1-1-1m527 0 1 1-1-1m-625 1 1 1-1-1m96 0 1 1-1-1m-626 3 1 1-1-1m537 0 1 1-1-1m82 0 1 1-1-1m537.33.667.34.666-.34-.666M750 781l1 1-1-1m3 1 1 1-1-1m72 0 1 1-1-1m-304 1 1 1-1-1m235 0 1 1-1-1m66 0 1 1-1-1m-299 1 1 1-1-1m236 0 1 1-1-1m60 0 1 1-1-1m-294 1 1 1-1-1m237 0 1 1-1-1m54 0 1 1-1-1m-289 1 1 1-1-1m239 0 1 1-1-1m46 0 1 1-1-1m239 0 1 1-1-1m-522 1 1 1-1-1m241.667.333.666.334-.666-.334m37 0 .666.334-.666-.334M1049 787l1 1-1-1m-518 1 1 1-1-1m245 0v1h3l-3-1m24 0v1h3l-3-1m247 0 1 1-1-1m-514 1 1 1-1-1m512 0 1 1-1-1m-510 1 1 1-1-1m508 0 1 1-1-1m-506 1 1 1-1-1m504 0 1 1-1-1m-502 1 1 1-1-1m500 0 1 1-1-1m-498 1 1 1-1-1m496 0 1 1-1-1m-494 1 1 1-1-1m492 0 1 1-1-1m-490 1 1 1-1-1m488 0 1 1-1-1m-2 1 1 1-1-1m-2 1 1 1-1-1m338.33.667.34.666-.34-.666M211 798l1 1-1-1m816 0 1 1-1-1m-815 4 1 1-1-1m1154 0 1 1-1-1m-802 3 1 1-1-1m-351 1 1 1-1-1m353 0 1 1-1-1m2 1 1 1-1-1m2 1 1 1-1-1m438 0 1 1-1-1m-436 1 1 1-1-1m434 0 1 1-1-1m-432 1 1 1-1-1m430 0 1 1-1-1m-789 1 1 1-1-1m361 0 1 1-1-1m426 0 1 1-1-1m-424 1 1 1-1-1m422 0 1 1-1-1m-784 1 1 1-1-1m364 0 1 1-1-1m418 0 1 1-1-1m-416 1 1 1-1-1m414 0 1 1-1-1m-779 1 1 1-1-1m367 0 1 1-1-1m410 0 1 1-1-1m-408 1 1 1-1-1m406 0 1 1-1-1m-404 1 1 1-1-1m402 0 1 1-1-1m-771 1 1 1-1-1m371 0 1 1-1-1m398 0 1 1-1-1m371 0 1 1-1-1m-767 1 1 1-1-1m394 0 1 1-1-1m-2 1 1 1-1-1m-2 1 1 1-1-1m-760 1 2 2-2-2m758 0 1 1-1-1m376 0-1 2 1-2m-1127 7 2 2-2-2m1120 0-1 2 1-2m-734 2 1 1-1-1m-382 1 1 1-1-1m384 0 1 1-1-1m728 0 1 1-1-1m-726 1 1 1-1-1m340 0 1 1-1-1m-723 1 1 1-1-1m385 0 1 1-1-1m336 0 1 1-1-1m385 0 1 1-1-1m-719 1 1 1-1-1m332 0 1 1-1-1m385 0 1 1-1-1m-715 1 1 1-1-1m328 0 1 1-1-1m385 0 1 1-1-1m-1096 1 1 1-1-1m385 0 1 1-1-1m324 0 1 1-1-1m385 0 1 1-1-1m-707 1 1 1-1-1m320 0 1 1-1-1m-705 1 1 1-1-1m387 0 1 1-1-1m316 0 1 1-1-1m387 0 1 1-1-1m-1088 1 1 1-1-1m387 0 1 1-1-1m312 0 1 1-1-1m387 0 1 1-1-1m-1084 1 1 1-1-1m387 0 1 1-1-1m308 0 1 1-1-1m387 0 1 1-1-1m-693 1 1 1-1-1m304 0 1 1-1-1m387 0 1 1-1-1m-689 1 1 1-1-1m300 0 1 1-1-1m387 0 1 1-1-1m-685 1 1 1-1-1m296 0 1 1-1-1m-2 1 1 1-1-1m-2 1 1 1-1-1m-2 1 1 1-1-1m-2 1 1 1-1-1m-658 5 1 1-1-1m2 1 1 1-1-1m1032 0 1 1-1-1m-1030 1 1 1-1-1m387 0 1 1-1-1m641 0 1 1-1-1m-1026 1 1 1-1-1m387 0 1 1-1-1m637 0 1 1-1-1m-1022 1 1 1-1-1m387 0 1 1-1-1m633 0 1 1-1-1m-1018 1 1 1-1-1m387 0 1 1-1-1m629 0 1 1-1-1m-1014 1 1 1-1-1m387 0 1 1-1-1m238 0 1 1-1-1m387 0 1 1-1-1m-1010 1 1 1-1-1m387 0 1 1-1-1m234 0 1 1-1-1m387 0 1 1-1-1m-1006 1 1 1-1-1m387 0 1 1-1-1m230 0 1 1-1-1m387 0 1 1-1-1m-1002 1 1 1-1-1m387 0 1 1-1-1m226 0 1 1-1-1m387 0 1 1-1-1m-998 1 1 1-1-1m387 0 1 1-1-1m222 0 1 1-1-1m387 0 1 1-1-1m-994 1 1 1-1-1m387 0 1 1-1-1m218 0 1 1-1-1m387 0 1 1-1-1m-990 1 1 1-1-1m387 0 1 1-1-1m214 0 1 1-1-1m387 0 1 1-1-1m-599 1 1 1-1-1m210 0 1 1-1-1m387 0 1 1-1-1m-595 1 1 1-1-1m206 0 1 1-1-1m387 0 1 1-1-1m-591 1 1 1-1-1m202 0 1 1-1-1m-200 1 1 1-1-1m198 0 1 1-1-1m-196 1 1 1-1-1m194 0 1 1-1-1m-192 1 1 1-1-1m190 0 1 1-1-1m-188 1 1 1-1-1m186 0 1 1-1-1m-184 1 1 1-1-1m182 0 1 1-1-1m-180 1 1 1-1-1m178 0 1 1-1-1m-176 1 1 1-1-1m2 1 1 1-1-1m-386 1 1 1-1-1m388 0 1 1-1-1m166 0 1 1-1-1m-552 1 1 1-1-1m938 0 1 1-1-1m-936 1 1 1-1-1m389 0 1 1-1-1m156 0 1 1-1-1m389 0 1 1-1-1m-932 1 1 1-1-1m541 0 1 1-1-1m389 0 1 1-1-1m-928 1 1 1-1-1m390 0 1 1-1-1m146 0 1 1-1-1m390 0 1 1-1-1m-924 1 1 1-1-1m391 0 1 1-1-1m140 0 1 1-1-1m391 0 1 1-1-1m-920 1 1 1-1-1m918 0 1 1-1-1m-916 1 1 1-1-1m392 0 1 1-1-1m130 0 1 1-1-1m392 0 1 1-1-1m-912 1 1 1-1-1m394 0 1 1-1-1m122 0 1 1-1-1m394 0 1 1-1-1m-908 1 1 1-1-1m395 0 1 1-1-1m116 0 1 1-1-1m395 0 1 1-1-1m-904 1 1 1-1-1m396 0 1 1-1-1m110 0 1 1-1-1m396 0 1 1-1-1m-900 1 1 1-1-1m398 0 1 1-1-1m102 0 1 1-1-1m398 0 1 1-1-1m-896 1 1 1-1-1m400 0 1 1-1-1m94 0 1 1-1-1m400 0 1 1-1-1m-892 1 1 1-1-1m402.667.333.666.334-.666-.334m85 0 .666.334-.666-.334M1234 890l1 1-1-1m-482 1 1 1-1-1m74 0 1 1-1-1m-68.333 1.333.666.334-.666-.334m63 0 .666.334-.666-.334m-55 1 .666.334-.666-.334m47 0 .666.334-.666-.334M775 894v1h4l-4-1m25 0v1h4l-4-1m-437 6 1 1-1-1m2 1 1 1-1-1m2 1 1 1-1-1m844 0 1 1-1-1m-842 1 1 1-1-1m840 0 1 1-1-1m-838 1 1 1-1-1m836 0 1 1-1-1m-834 1 1 1-1-1m832 0 1 1-1-1m-830 1 1 1-1-1m828 0 1 1-1-1m-826 1 1 1-1-1m824 0 1 1-1-1m-822 1 1 1-1-1m820 0 1 1-1-1m-818 1 1 1-1-1m816 0 1 1-1-1m-814 1 1 1-1-1m812 0 1 1-1-1m-810 1 1 1-1-1m808 0 1 1-1-1m-806 1 1 1-1-1m804 0 1 1-1-1m-802 1 1 1-1-1m800 0 1 1-1-1m-798 1 1 1-1-1m796 0 1 1-1-1m-2 1 1 1-1-1m-775 9 1 1-1-1m2 1 1 1-1-1m754 0 1 1-1-1m-752 1 1 1-1-1m750 0 1 1-1-1m-748 1 1 1-1-1m746 0 1 1-1-1m-744 1 1 1-1-1m742 0 1 1-1-1m-740 1 1 1-1-1m738 0 1 1-1-1m-736 1 1 1-1-1m734 0 1 1-1-1m-732 1 1 1-1-1m730 0 1 1-1-1m-728 1 1 1-1-1m726 0 1 1-1-1m-724 1 1 1-1-1m722 0 1 1-1-1m-720 1 1 1-1-1m718 0 1 1-1-1m-716 1 1 1-1-1m714 0 1 1-1-1m-712 1 1 1-1-1m710 0 1 1-1-1m-708 1 1 1-1-1m706 0 1 1-1-1m-2 1 1 1-1-1m-2 1 1 1-1-1m-681 9 1 1-1-1m2 1 1 1-1-1m660 0 1 1-1-1m-658 1 1 1-1-1m656 0 1 1-1-1m-654 1 1 1-1-1m652 0 1 1-1-1m-650 1 1 1-1-1m648 0 1 1-1-1m-646 1 1 1-1-1m644 0 1 1-1-1m-642 1 1 1-1-1m640 0 1 1-1-1m-638 1 1 1-1-1m636 0 1 1-1-1m-634 1 1 1-1-1m632 0 1 1-1-1m-630 1 1 1-1-1m628 0 1 1-1-1m-626 1 1 1-1-1m624 0 1 1-1-1m-622 1 1 1-1-1m620 0 1 1-1-1m-618 1 1 1-1-1m616 0 1 1-1-1m-614 1 1 1-1-1m612 0 1 1-1-1m-2 1 1 1-1-1m-589 10 1 1-1-1m2 1 1 1-1-1m566 0 1 1-1-1m-564 1 1 1-1-1m562 0 1 1-1-1m-560 1 1 1-1-1m558 0 1 1-1-1m-556 1 1 1-1-1m554 0 1 1-1-1m-552 1 1 1-1-1m550 0 1 1-1-1m-548 1 1 1-1-1m546 0 1 1-1-1m-544 1 1 1-1-1m542 0 1 1-1-1m-540 1 1 1-1-1m538 0 1 1-1-1m-536 1 1 1-1-1m534 0 1 1-1-1m-532 1 1 1-1-1m530 0 1 1-1-1m-528 1 1 1-1-1m526 0 1 1-1-1m-524 1 1 1-1-1m522 0 1 1-1-1m-2 1 1 1-1-1m-2 1 1 1-1-1m-495 10 1 1-1-1m2 1 1 1-1-1m472 0 1 1-1-1m-470 1 1 1-1-1m468 0 1 1-1-1m-466 1 1 1-1-1m464 0 1 1-1-1m-462 1 1 1-1-1m460 0 1 1-1-1m-458 1 1 1-1-1m456 0 1 1-1-1m-454 1 1 1-1-1m452 0 1 1-1-1m-450 1 1 1-1-1m448 0 1 1-1-1m-446 1 1 1-1-1m444 0 1 1-1-1m-442 1 1 1-1-1m440 0 1 1-1-1m-438 1 1 1-1-1m436 0 1 1-1-1m-668 1 1 1z"/>
  <path fill="gray" d="m780.667 158.333.666.334zm1.333.091c-24.488 3.255-44.191 13.418-66 24.329-26.135 13.076-51.868 26.934-78 40-99.535 49.767-197.471 102.729-297 152.494-27.138 13.569-53.866 27.939-81 41.506-22.775 11.388-45.055 22.114-48.711 50.247-4.282 32.95 20.231 49.528 45.711 63.309 24.349 13.168 49.239 25.557 74 37.938 104.889 52.445 210.852 104.276 314 160.062 25.005 13.523 50.571 26.224 76 38.938 24.575 12.287 49.581 24.867 78 21.467 23.027-2.754 42.562-13.248 63-23.467 26.795-13.397 53.208-27.604 80-41 99.74-49.869 198.27-102.134 298-152 27.79-13.893 55.53-27.97 83-42.466 21.65-11.424 42.16-24.051 44.83-50.781 3.76-37.65-28.46-52.064-56.83-66.247-21.13-10.564-41.87-21.942-63-32.506-106.7-53.348-214.08-106.81-319-163.556-23.726-12.831-48.03-24.577-72-36.95-22.856-11.797-48.3-24.865-75-21.317Zm14-.424v1h3l-3-1m-23.333 1.333.666.334-.666-.334m33 0 .666.334-.666-.334m-38 1 .666.334-.666-.334M810 160l1 1-1-1m-47 1 1 1-1-1m52 0 1 1-1-1m-55 1 1 1-1-1m58 0 1 1-1-1m-61 1 1 1-1-1m64 0 1 1-1-1m-67 1 1 1-1-1m70 0 1 1-1-1m-73 1 1 1-1-1m-2 1 1 1-1-1m80 0 1 1-1-1m23 11 1 1-1-1m-128 1 1 1-1-1m130 0 1 1-1-1m-132 1 1 1-1-1m134 0 1 1-1-1m-136 1 1 1-1-1m138 0 1 1-1-1m-140 1 1 1-1-1m142 0 1 1-1-1m-144 1 1 1-1-1m146 0 1 1-1-1m-148 1 1 1-1-1m150 0 1 1-1-1m-152 1 1 1-1-1m154 0 1 1-1-1m-156 1 1 1-1-1m158 0 1 1-1-1m-160 1 1 1-1-1m162 0 1 1-1-1m-164 1 1 1-1-1m166 0 1 1-1-1m-168 1 1 1-1-1m185 8 1 1-1-1m-202 1 1 1-1-1m204 0 1 1-1-1m-206 1 1 1-1-1m208 0 1 1-1-1m-210 1 1 1-1-1m212 0 1 1-1-1m-214 1 1 1-1-1m216 0 1 1-1-1m-218 1 1 1-1-1m220 0 1 1-1-1m-222 1 1 1-1-1m224 0 1 1-1-1m-226 1 1 1-1-1m228 0 1 1-1-1m-230 1 1 1-1-1m232 0 1 1-1-1m-234 1 1 1-1-1m236 0 1 1-1-1m-238 1 1 1-1-1m240 0 1 1-1-1m-242 1 1 1-1-1m259 8 1 1-1-1m-276 1 1 1-1-1m278 0 1 1-1-1m-280 1 1 1-1-1m282 0 1 1-1-1m-284 1 1 1-1-1m286 0 1 1-1-1m-288 1 1 1-1-1m290 0 1 1-1-1m-292 1 1 1-1-1m294 0 1 1-1-1m-296 1 1 1-1-1m298 0 1 1-1-1m-300 1 1 1-1-1m302 0 1 1-1-1m-304 1 1 1-1-1m306 0 1 1-1-1m-308 1 1 1-1-1m310 0 1 1-1-1m-312 1 1 1-1-1m314 0 1 1-1-1m-316 1 1 1-1-1m333 8 1 1-1-1m-350 1 1 1-1-1m352 0 1 1-1-1m-354 1 1 1-1-1m356 0 1 1-1-1m-358 1 1 1-1-1m360 0 1 1-1-1m-362 1 1 1-1-1m364 0 1 1-1-1m-366 1 1 1-1-1m368 0 1 1-1-1m-370 1 1 1-1-1m372 0 1 1-1-1m-374 1 1 1-1-1m376 0 1 1-1-1m-378 1 1 1-1-1m380 0 1 1-1-1m-382 1 1 1-1-1m384 0 1 1-1-1m-386 1 1 1-1-1m388 0 1 1-1-1m-390 1 1 1-1-1m409 9 1 1-1-1m-428 1 1 1-1-1m430 0 1 1-1-1m-432 1 1 1-1-1m434 0 1 1-1-1m-436 1 1 1-1-1m438 0 1 1-1-1m-440 1 1 1-1-1m442 0 1 1-1-1m-444 1 1 1-1-1m446 0 1 1-1-1m-448 1 1 1-1-1m450 0 1 1-1-1m-452 1 1 1-1-1m454 0 1 1-1-1m-456 1 1 1-1-1m458 0 1 1-1-1m-460 1 1 1-1-1m462 0 1 1-1-1m-464 1 1 1-1-1m483 9 1 1-1-1m-502 1 1 1-1-1m504 0 1 1-1-1m-506 1 1 1-1-1m508 0 1 1-1-1m-510 1 1 1-1-1m512 0 1 1-1-1m-514 1 1 1-1-1m516 0 1 1-1-1m-518 1 1 1-1-1m520 0 1 1-1-1m-522 1 1 1-1-1m524 0 1 1-1-1m-526 1 1 1-1-1m528 0 1 1-1-1m-530 1 1 1-1-1m532 0 1 1-1-1m-534 1 1 1-1-1m536 0 1 1-1-1m-538 1 1 1-1-1m540 0 1 1-1-1m-542 1 1 1-1-1m557 7 1 1-1-1m-572 1 1 1-1-1m574 0 1 1-1-1m-576 1 1 1-1-1m578 0 1 1-1-1m-580 1 1 1-1-1m582 0 1 1-1-1m-584 1 1 1-1-1m586 0 1 1-1-1m-588 1 1 1-1-1m590 0 1 1-1-1m-592 1 1 1-1-1m594 0 1 1-1-1m-596 1 1 1-1-1m598 0 1 1-1-1m-600 1 1 1-1-1m602 0 1 1-1-1m-604 1 1 1-1-1m606 0 1 1-1-1m-608 1 1 1-1-1m610 0 1 1-1-1m-612 1 1 1-1-1m614 0 1 1-1-1m-616 1 1 1-1-1m631 7 1 1-1-1m-646 1 1 1-1-1m648 0 1 1-1-1m-650 1 1 1-1-1m652 0 1 1-1-1m-654 1 1 1-1-1m656 0 1 1-1-1m-658 1 1 1-1-1m660 0 1 1-1-1m-662 1 1 1-1-1m664 0 1 1-1-1m-666 1 1 1-1-1m668 0 1 1-1-1m-670 1 1 1-1-1m672 0 1 1-1-1m-674 1 1 1-1-1m676 0 1 1-1-1m-678 1 1 1-1-1m680 0 1 1-1-1m-682 1 1 1-1-1m684 0 1 1-1-1m-686 1 1 1-1-1m688 0 1 1-1-1m-690 1 1 1-1-1m707 8 1 1-1-1m-724 1 1 1-1-1m726 0 1 1-1-1m-728 1 1 1-1-1m730 0 1 1-1-1m-732 1 1 1-1-1m734 0 1 1-1-1m-736 1 1 1-1-1m738 0 1 1-1-1m-740 1 1 1-1-1m742 0 1 1-1-1m-744 1 1 1-1-1m746 0 1 1-1-1m-748 1 1 1-1-1m750 0 1 1-1-1m-752 1 1 1-1-1m754 0 1 1-1-1m-756 1 1 1-1-1m758 0 1 1-1-1m-760 1 1 1-1-1m762 0 1 1-1-1m-764 1 1 1-1-1m781 8 1 1-1-1m-798 1 1 1-1-1m800 0 1 1-1-1m-802 1 1 1-1-1m804 0 1 1-1-1m-806 1 1 1-1-1m808 0 1 1-1-1m-810 1 1 1-1-1m812 0 1 1-1-1m-814 1 1 1-1-1m816 0 1 1-1-1m-818 1 1 1-1-1m820 0 1 1-1-1m-822 1 1 1-1-1m824 0 1 1-1-1m-826 1 1 1-1-1m828 0 1 1-1-1m-830 1 1 1-1-1m832 0 1 1-1-1m-834 1 1 1-1-1m836 0 1 1-1-1m-838 1 1 1-1-1m855 8 1 1-1-1m-872 1 1 1-1-1m874 0 1 1-1-1m-876 1 1 1-1-1m878 0 1 1-1-1m-880 1 1 1-1-1m882 0 1 1-1-1m-884 1 1 1-1-1m886 0 1 1-1-1m-888 1 1 1-1-1m890 0 1 1-1-1m-892 1 1 1-1-1m894 0 1 1-1-1m-896 1 1 1-1-1m898 0 1 1-1-1m-900 1 1 1-1-1m902 0 1 1-1-1m-904 1 1 1-1-1m906 0 1 1-1-1m-908 1 1 1-1-1m910 0 1 1-1-1m-912 1 1 1-1-1m929 8 1 1-1-1m-946 1 1 1-1-1m948 0 1 1-1-1m-950 1 1 1-1-1m952 0 1 1-1-1m-954 1 1 1-1-1m956 0 1 1-1-1m-958 1 1 1-1-1m960 0 1 1-1-1m-962 1 1 1-1-1m964 0 1 1-1-1m-966 1 1 1-1-1m968 0 1 1-1-1m-970 1 1 1-1-1m972 0 1 1-1-1m-974 1 1 1-1-1m976 0 1 1-1-1m-978 1 1 1-1-1m980 0 1 1-1-1m-982 1 1 1-1-1m984 0 1 1-1-1m-986 1 1 1-1-1m1005 9 1 1-1-1m-1024 1 1 1-1-1m1026 0 1 1-1-1m-1028 1 1 1-1-1m1030 0 1 1-1-1m-1032 1 1 1-1-1m1034 0 1 1-1-1m-1036 1 1 1-1-1m1038 0 1 1-1-1m-1040 1 1 1-1-1m1042 0 1 1-1-1m-1044 1 1 1-1-1m1046 0 1 1-1-1m-1048 1 1 1-1-1m1050 0 1 1-1-1m-1052 1 1 1-1-1m1054 0 1 1-1-1m-1056 1 1 1-1-1m1058 0 1 1-1-1m-1060 1 1 1-1-1m-18 9 1 1-1-1m-2 1 1 1-1-1m1105 2 1 1-1-1m-1110 1 1 1-1-1m1112 0 2 2-2-2m-1116 3-2 3 2-3m1120 0 7 7-7-7m-1124 4-3 4 3-4m-5 6-1 2 1-2m1138 0 1 1-1-1m2 3 1 1-1-1m-1146 8 1 1-1-1m1150 0 1 1-1-1m-1151 2 1 1-1-1m-1 4 1 1-1-1m1154 0 1 1-1-1m-1154.667 4.667.334.666-.334-.666m1155.997 0 .34.666-.34-.666m0 17 .34.666-.34-.666M211 482l1 1-1-1m1155 4 1 1-1-1m-1154 1 1 1-1-1m1 3 1 1-1-1m1152 0 1 1-1-1m-1151 3 1 1-1-1m1 2 1 1-1-1m1148 0 1 1-1-1m-1147 2 1 1-1-1m1146 0 1 1-1-1m-1145 2 1 1-1-1m1144 0 1 1-1-1m-1142 3 1 1-1-1m1140 0 1 1-1-1m-1138 3 1 1-1-1m1136 0-1 2 1-2m-1127 9 2 2-2-2m1118 0-1 2 1-2m-1114 3 1 1-1-1m1110 0 1 1-1-1m-1105 3 1 1-1-1m1100 0 1 1-1-1m-1096 3 1 1-1-1m1092 0 1 1-1-1m-1090 1 1 1-1-1m1088 0 1 1-1-1m-1086 1 1 1-1-1m1084 0 1 1-1-1m-1082 1 1 1-1-1m1080 0 1 1-1-1m-1078 1 1 1-1-1m1076 0 1 1-1-1m-1074 1 1 1-1-1m1072 0 1 1-1-1m-1070 1 1 1-1-1m1068 0 1 1-1-1m-1066 1 1 1-1-1m1064 0 1 1-1-1m-1062 1 1 1-1-1m1060 0 1 1-1-1M280 542l1 1-1-1m2 1 1 1-1-1m1014 0 1 1-1-1m-1012 1 1 1-1-1m1010 0 1 1-1-1m-1008 1 1 1-1-1m1006 0 1 1-1-1m-1004 1 1 1-1-1m1002 0 1 1-1-1m-1000 1 1 1-1-1m998 0 1 1-1-1m-996 1 1 1-1-1m994 0 1 1-1-1m-992 1 1 1-1-1m990 0 1 1-1-1m-988 1 1 1-1-1m986 0 1 1-1-1m-984 1 1 1-1-1m982 0 1 1-1-1m-980 1 1 1-1-1m978 0 1 1-1-1m-976 1 1 1-1-1m974 0 1 1-1-1m-972 1 1 1-1-1m970 0 1 1-1-1m-968 1 1 1-1-1m966 0 1 1-1-1m-964 1 1 1-1-1m962 0 1 1-1-1m-2 1 1 1-1-1m-939 10 1 1-1-1m2 1 1 1-1-1m916 0 1 1-1-1m-914 1 1 1-1-1m912 0 1 1-1-1m-910 1 1 1-1-1m908 0 1 1-1-1m-906 1 1 1-1-1m904 0 1 1-1-1m-902 1 1 1-1-1m900 0 1 1-1-1m-898 1 1 1-1-1m896 0 1 1-1-1m-894 1 1 1-1-1m892 0 1 1-1-1m-890 1 1 1-1-1m888 0 1 1-1-1m-886 1 1 1-1-1m884 0 1 1-1-1m-882 1 1 1-1-1m880 0 1 1-1-1m-878 1 1 1-1-1m876 0 1 1-1-1m-874 1 1 1-1-1m872 0 1 1-1-1m-870 1 1 1-1-1m868 0 1 1-1-1m-2 1 1 1-1-1m-2 1 1 1-1-1m-843 9 1 1-1-1m2 1 1 1-1-1m2 1 1 1-1-1m818 0 1 1-1-1m-816 1 1 1-1-1m814 0 1 1-1-1m-812 1 1 1-1-1m810 0 1 1-1-1m-808 1 1 1-1-1m806 0 1 1-1-1m-804 1 1 1-1-1m802 0 1 1-1-1m-800 1 1 1-1-1m798 0 1 1-1-1m-796 1 1 1-1-1m794 0 1 1-1-1m-792 1 1 1-1-1m790 0 1 1-1-1m-788 1 1 1-1-1m786 0 1 1-1-1m-784 1 1 1-1-1m782 0 1 1-1-1m-780 1 1 1-1-1m778 0 1 1-1-1m-776 1 1 1-1-1m774 0 1 1-1-1m-2 1 1 1-1-1m-2 1 1 1-1-1m-747 10 1 1-1-1m2 1 1 1-1-1m724 0 1 1-1-1m-722 1 1 1-1-1m720 0 1 1-1-1m-718 1 1 1-1-1m716 0 1 1-1-1m-714 1 1 1-1-1m712 0 1 1-1-1m-710 1 1 1-1-1m708 0 1 1-1-1m-706 1 1 1-1-1m704 0 1 1-1-1m-702 1 1 1-1-1m700 0 1 1-1-1m-698 1 1 1-1-1m696 0 1 1-1-1m-694 1 1 1-1-1m692 0 1 1-1-1m-690 1 1 1-1-1m688 0 1 1-1-1m-686 1 1 1-1-1m684 0 1 1-1-1m-682 1 1 1-1-1m680 0 1 1-1-1m-678 1 1 1-1-1m676 0 1 1-1-1m-674 1 1 1-1-1m672 0 1 1-1-1m-651 11 1 1-1-1m2 1 1 1-1-1m626 0 1 1-1-1m-624 1 1 1-1-1m622 0 1 1-1-1m-620 1 1 1-1-1m618 0 1 1-1-1m-616 1 1 1-1-1m614 0 1 1-1-1m-612 1 1 1-1-1m610 0 1 1-1-1m-608 1 1 1-1-1m606 0 1 1-1-1m-604 1 1 1-1-1m602 0 1 1-1-1m-600 1 1 1-1-1m598 0 1 1-1-1m-596 1 1 1-1-1m594 0 1 1-1-1m-592 1 1 1-1-1m590 0 1 1-1-1m-588 1 1 1-1-1m586 0 1 1-1-1m-584 1 1 1-1-1m582 0 1 1-1-1m-580 1 1 1-1-1m578 0 1 1-1-1m-576 1 1 1-1-1m574 0 1 1-1-1m-2 1 1 1-1-1m-551 10 1 1-1-1m2 1 1 1-1-1m528 0 1 1-1-1m-526 1 1 1-1-1m524 0 1 1-1-1m-522 1 1 1-1-1m520 0 1 1-1-1m-518 1 1 1-1-1m516 0 1 1-1-1m-514 1 1 1-1-1m512 0 1 1-1-1m-510 1 1 1-1-1m508 0 1 1-1-1m-506 1 1 1-1-1m504 0 1 1-1-1m-502 1 1 1-1-1m500 0 1 1-1-1m-498 1 1 1-1-1m496 0 1 1-1-1m-494 1 1 1-1-1m492 0 1 1-1-1m-490 1 1 1-1-1m488 0 1 1-1-1m-486 1 1 1-1-1m484 0 1 1-1-1m-482 1 1 1-1-1m480 0 1 1-1-1m-2 1 1 1-1-1m-2 1 1 1-1-1m-455 9 1 1zm-230 1.862c-5.204.599-10.473 4.968-15 7.357-10.617 5.602-21.44 10.761-32 16.472-35.228 19.052-93.731 35.35-80.37 87.309 1.801 7.004 4.92 13.301 9.385 18.999 10.411 13.283 28.205 20.858 42.985 28.248 25.694 12.847 51.733 25.397 77 39.062 101.587 54.941 205.695 106.285 309 157.941 21.023 10.51 42.324 20.88 63 32.06 25.052 13.55 52.473 28.33 82 25.52 26.327-2.51 47.853-14.93 71-26.58 30.761-15.49 61.401-31.2 92-46.99 104.04-53.703 208.42-106.849 313-159.508 18.7-9.417 37.7-18.722 56-28.891 8.7-4.832 18.83-9.622 25.71-16.951 19.44-20.711 19.4-56.454-2.75-75.445-8.65-7.42-19.93-11.545-29.96-16.723-17.68-9.125-35.21-18.598-53-27.495-7.91-3.956-21.19-14.477-30-14.466-8.97.011-22.91 10.927-31 14.972-25.46 12.732-50.54 26.27-76 39-65.27 32.635-129.73 66.86-195 99.494-23.783 11.891-47.104 26.238-72 35.689-37.622 14.282-77.584 17.548-117 9.615-38.699-7.789-73.14-29.874-108-47.304-64.602-32.301-128.398-66.193-193-98.494-25.796-12.898-51.202-26.607-77-39.506-7.051-3.526-21.156-14.288-29-13.385z"/>
  <path fill="#4d4d4d" d="m780.667 158.333.666.334zm1.333.091c-24.488 3.255-44.191 13.418-66 24.329-26.135 13.076-51.868 26.934-78 40-99.535 49.767-197.471 102.729-297 152.494-27.138 13.569-53.866 27.939-81 41.506-22.775 11.388-45.055 22.114-48.711 50.247-4.282 32.95 20.231 49.528 45.711 63.309 24.349 13.168 49.239 25.557 74 37.938 104.889 52.445 210.852 104.276 314 160.062 25.005 13.523 50.571 26.224 76 38.938 24.575 12.287 49.581 24.867 78 21.467 23.027-2.754 42.562-13.248 63-23.467 26.795-13.397 53.208-27.604 80-41 99.74-49.869 198.27-102.134 298-152 27.79-13.893 55.53-27.97 83-42.466 21.65-11.424 42.16-24.051 44.83-50.781 3.76-37.65-28.46-52.064-56.83-66.247-21.13-10.564-41.87-21.942-63-32.506-106.7-53.348-214.08-106.81-319-163.556-23.726-12.831-48.03-24.577-72-36.95-22.856-11.797-48.3-24.865-75-21.317Zm14-.424v1h3l-3-1m-23.333 1.333.666.334-.666-.334m33 0 .666.334-.666-.334m-38 1 .666.334-.666-.334M810 160l1 1-1-1m-47 1 1 1-1-1m52 0 1 1-1-1m-55 1 1 1-1-1m58 0 1 1-1-1m-61 1 1 1-1-1m64 0 1 1-1-1m-67 1 1 1-1-1m70 0 1 1-1-1m-73 1 1 1-1-1m-2 1 1 1-1-1m80 0 1 1-1-1m23 11 1 1-1-1m-128 1 1 1-1-1m130 0 1 1-1-1m-132 1 1 1-1-1m134 0 1 1-1-1m-136 1 1 1-1-1m138 0 1 1-1-1m-140 1 1 1-1-1m142 0 1 1-1-1m-144 1 1 1-1-1m146 0 1 1-1-1m-148 1 1 1-1-1m150 0 1 1-1-1m-152 1 1 1-1-1m154 0 1 1-1-1m-156 1 1 1-1-1m158 0 1 1-1-1m-160 1 1 1-1-1m162 0 1 1-1-1m-164 1 1 1-1-1m166 0 1 1-1-1m-168 1 1 1-1-1m185 8 1 1-1-1m-202 1 1 1-1-1m204 0 1 1-1-1m-206 1 1 1-1-1m208 0 1 1-1-1m-210 1 1 1-1-1m212 0 1 1-1-1m-214 1 1 1-1-1m216 0 1 1-1-1m-218 1 1 1-1-1m220 0 1 1-1-1m-222 1 1 1-1-1m224 0 1 1-1-1m-226 1 1 1-1-1m228 0 1 1-1-1m-230 1 1 1-1-1m232 0 1 1-1-1m-234 1 1 1-1-1m236 0 1 1-1-1m-238 1 1 1-1-1m240 0 1 1-1-1m-242 1 1 1-1-1m259 8 1 1-1-1m-276 1 1 1-1-1m278 0 1 1-1-1m-280 1 1 1-1-1m282 0 1 1-1-1m-284 1 1 1-1-1m286 0 1 1-1-1m-288 1 1 1-1-1m290 0 1 1-1-1m-292 1 1 1-1-1m294 0 1 1-1-1m-296 1 1 1-1-1m298 0 1 1-1-1m-300 1 1 1-1-1m302 0 1 1-1-1m-304 1 1 1-1-1m306 0 1 1-1-1m-308 1 1 1-1-1m310 0 1 1-1-1m-312 1 1 1-1-1m314 0 1 1-1-1m-316 1 1 1-1-1m333 8 1 1-1-1m-350 1 1 1-1-1m352 0 1 1-1-1m-354 1 1 1-1-1m356 0 1 1-1-1m-358 1 1 1-1-1m360 0 1 1-1-1m-362 1 1 1-1-1m364 0 1 1-1-1m-366 1 1 1-1-1m368 0 1 1-1-1m-370 1 1 1-1-1m372 0 1 1-1-1m-374 1 1 1-1-1m376 0 1 1-1-1m-378 1 1 1-1-1m380 0 1 1-1-1m-382 1 1 1-1-1m384 0 1 1-1-1m-386 1 1 1-1-1m388 0 1 1-1-1m-390 1 1 1-1-1m409 9 1 1-1-1m-428 1 1 1-1-1m430 0 1 1-1-1m-432 1 1 1-1-1m434 0 1 1-1-1m-436 1 1 1-1-1m438 0 1 1-1-1m-440 1 1 1-1-1m442 0 1 1-1-1m-444 1 1 1-1-1m446 0 1 1-1-1m-448 1 1 1-1-1m450 0 1 1-1-1m-452 1 1 1-1-1m454 0 1 1-1-1m-456 1 1 1-1-1m458 0 1 1-1-1m-460 1 1 1-1-1m462 0 1 1-1-1m-464 1 1 1-1-1m483 9 1 1-1-1m-502 1 1 1-1-1m504 0 1 1-1-1m-506 1 1 1-1-1m508 0 1 1-1-1m-510 1 1 1-1-1m512 0 1 1-1-1m-514 1 1 1-1-1m516 0 1 1-1-1m-518 1 1 1-1-1m520 0 1 1-1-1m-522 1 1 1-1-1m524 0 1 1-1-1m-526 1 1 1-1-1m528 0 1 1-1-1m-530 1 1 1-1-1m532 0 1 1-1-1m-534 1 1 1-1-1m536 0 1 1-1-1m-538 1 1 1-1-1m540 0 1 1-1-1m-542 1 1 1-1-1m557 7 1 1-1-1m-572 1 1 1-1-1m574 0 1 1-1-1m-576 1 1 1-1-1m578 0 1 1-1-1m-580 1 1 1-1-1m582 0 1 1-1-1m-584 1 1 1-1-1m586 0 1 1-1-1m-588 1 1 1-1-1m590 0 1 1-1-1m-592 1 1 1-1-1m594 0 1 1-1-1m-596 1 1 1-1-1m598 0 1 1-1-1m-600 1 1 1-1-1m602 0 1 1-1-1m-604 1 1 1-1-1m606 0 1 1-1-1m-608 1 1 1-1-1m610 0 1 1-1-1m-612 1 1 1-1-1m614 0 1 1-1-1m-616 1 1 1-1-1m631 7 1 1-1-1m-646 1 1 1-1-1m648 0 1 1-1-1m-650 1 1 1-1-1m652 0 1 1-1-1m-654 1 1 1-1-1m656 0 1 1-1-1m-658 1 1 1-1-1m660 0 1 1-1-1m-662 1 1 1-1-1m664 0 1 1-1-1m-666 1 1 1-1-1m668 0 1 1-1-1m-670 1 1 1-1-1m672 0 1 1-1-1m-674 1 1 1-1-1m676 0 1 1-1-1m-678 1 1 1-1-1m680 0 1 1-1-1m-682 1 1 1-1-1m684 0 1 1-1-1m-686 1 1 1-1-1m688 0 1 1-1-1m-690 1 1 1-1-1m707 8 1 1-1-1m-724 1 1 1-1-1m726 0 1 1-1-1m-728 1 1 1-1-1m730 0 1 1-1-1m-732 1 1 1-1-1m734 0 1 1-1-1m-736 1 1 1-1-1m738 0 1 1-1-1m-740 1 1 1-1-1m742 0 1 1-1-1m-744 1 1 1-1-1m746 0 1 1-1-1m-748 1 1 1-1-1m750 0 1 1-1-1m-752 1 1 1-1-1m754 0 1 1-1-1m-756 1 1 1-1-1m758 0 1 1-1-1m-760 1 1 1-1-1m762 0 1 1-1-1m-764 1 1 1-1-1m781 8 1 1-1-1m-798 1 1 1-1-1m800 0 1 1-1-1m-802 1 1 1-1-1m804 0 1 1-1-1m-806 1 1 1-1-1m808 0 1 1-1-1m-810 1 1 1-1-1m812 0 1 1-1-1m-814 1 1 1-1-1m816 0 1 1-1-1m-818 1 1 1-1-1m820 0 1 1-1-1m-822 1 1 1-1-1m824 0 1 1-1-1m-826 1 1 1-1-1m828 0 1 1-1-1m-830 1 1 1-1-1m832 0 1 1-1-1m-834 1 1 1-1-1m836 0 1 1-1-1m-838 1 1 1-1-1m855 8 1 1-1-1m-872 1 1 1-1-1m874 0 1 1-1-1m-876 1 1 1-1-1m878 0 1 1-1-1m-880 1 1 1-1-1m882 0 1 1-1-1m-884 1 1 1-1-1m886 0 1 1-1-1m-888 1 1 1-1-1m890 0 1 1-1-1m-892 1 1 1-1-1m894 0 1 1-1-1m-896 1 1 1-1-1m898 0 1 1-1-1m-900 1 1 1-1-1m902 0 1 1-1-1m-904 1 1 1-1-1m906 0 1 1-1-1m-908 1 1 1-1-1m910 0 1 1-1-1m-912 1 1 1-1-1m929 8 1 1-1-1m-946 1 1 1-1-1m948 0 1 1-1-1m-950 1 1 1-1-1m952 0 1 1-1-1m-954 1 1 1-1-1m956 0 1 1-1-1m-958 1 1 1-1-1m960 0 1 1-1-1m-962 1 1 1-1-1m964 0 1 1-1-1m-966 1 1 1-1-1m968 0 1 1-1-1m-970 1 1 1-1-1m972 0 1 1-1-1m-974 1 1 1-1-1m976 0 1 1-1-1m-978 1 1 1-1-1m980 0 1 1-1-1m-982 1 1 1-1-1m984 0 1 1-1-1m-986 1 1 1-1-1m1005 9 1 1-1-1m-1024 1 1 1-1-1m1026 0 1 1-1-1m-1028 1 1 1-1-1m1030 0 1 1-1-1m-1032 1 1 1-1-1m1034 0 1 1-1-1m-1036 1 1 1-1-1m1038 0 1 1-1-1m-1040 1 1 1-1-1m1042 0 1 1-1-1m-1044 1 1 1-1-1m1046 0 1 1-1-1m-1048 1 1 1-1-1m1050 0 1 1-1-1m-1052 1 1 1-1-1m1054 0 1 1-1-1m-1056 1 1 1-1-1m1058 0 1 1-1-1m-1060 1 1 1-1-1m-18 9 1 1-1-1m-2 1 1 1-1-1m1105 2 1 1-1-1m-1110 1 1 1-1-1m1112 0 2 2-2-2m-1116 3-2 3 2-3m1120 0 7 7-7-7m-1124 4-3 4 3-4m-5 6-1 2 1-2m1138 0 1 1-1-1m2 3 1 1-1-1m-1146 8 1 1-1-1m1150 0 1 1-1-1m-1151 2 1 1-1-1m-1 4 1 1-1-1m1154 0 1 1-1-1m-1154.667 4.667.334.666-.334-.666m1155.997 0 .34.666-.34-.666m0 17 .34.666-.34-.666M211 482l1 1-1-1m1155 4 1 1-1-1m-1154 1 1 1-1-1m1 3 1 1-1-1m1152 0 1 1-1-1m-1151 3 1 1-1-1m1 2 1 1-1-1m1148 0 1 1-1-1m-1147 2 1 1-1-1m1146 0 1 1-1-1m-1145 2 1 1-1-1m1144 0 1 1-1-1m-1142 3 1 1-1-1m1140 0 1 1-1-1m-1138 3 1 1-1-1m1136 0-1 2 1-2m-1127 9 2 2-2-2m1118 0-1 2 1-2m-1114 3 1 1-1-1m1110 0 1 1-1-1m-1105 3 1 1-1-1m1100 0 1 1-1-1m-1096 3 1 1-1-1m1092 0 1 1-1-1m-1090 1 1 1-1-1m1088 0 1 1-1-1m-1086 1 1 1-1-1m1084 0 1 1-1-1m-1082 1 1 1-1-1m1080 0 1 1-1-1m-1078 1 1 1-1-1m1076 0 1 1-1-1m-1074 1 1 1-1-1m1072 0 1 1-1-1m-1070 1 1 1-1-1m1068 0 1 1-1-1m-1066 1 1 1-1-1m1064 0 1 1-1-1m-1062 1 1 1-1-1m1060 0 1 1-1-1M280 542l1 1-1-1m2 1 1 1-1-1m1014 0 1 1-1-1m-1012 1 1 1-1-1m1010 0 1 1-1-1m-1008 1 1 1-1-1m1006 0 1 1-1-1m-1004 1 1 1-1-1m1002 0 1 1-1-1m-1000 1 1 1-1-1m998 0 1 1-1-1m-996 1 1 1-1-1m994 0 1 1-1-1m-992 1 1 1-1-1m990 0 1 1-1-1m-988 1 1 1-1-1m986 0 1 1-1-1m-984 1 1 1-1-1m982 0 1 1-1-1m-980 1 1 1-1-1m978 0 1 1-1-1m-976 1 1 1-1-1m974 0 1 1-1-1m-972 1 1 1-1-1m970 0 1 1-1-1m-968 1 1 1-1-1m966 0 1 1-1-1m-964 1 1 1-1-1m962 0 1 1-1-1m-2 1 1 1-1-1m-939 10 1 1-1-1m2 1 1 1-1-1m916 0 1 1-1-1m-914 1 1 1-1-1m912 0 1 1-1-1m-910 1 1 1-1-1m908 0 1 1-1-1m-906 1 1 1-1-1m904 0 1 1-1-1m-902 1 1 1-1-1m900 0 1 1-1-1m-898 1 1 1-1-1m896 0 1 1-1-1m-894 1 1 1-1-1m892 0 1 1-1-1m-890 1 1 1-1-1m888 0 1 1-1-1m-886 1 1 1-1-1m884 0 1 1-1-1m-882 1 1 1-1-1m880 0 1 1-1-1m-878 1 1 1-1-1m876 0 1 1-1-1m-874 1 1 1-1-1m872 0 1 1-1-1m-870 1 1 1-1-1m868 0 1 1-1-1m-2 1 1 1-1-1m-2 1 1 1-1-1m-843 9 1 1-1-1m2 1 1 1-1-1m2 1 1 1-1-1m818 0 1 1-1-1m-816 1 1 1-1-1m814 0 1 1-1-1m-812 1 1 1-1-1m810 0 1 1-1-1m-808 1 1 1-1-1m806 0 1 1-1-1m-804 1 1 1-1-1m802 0 1 1-1-1m-800 1 1 1-1-1m798 0 1 1-1-1m-796 1 1 1-1-1m794 0 1 1-1-1m-792 1 1 1-1-1m790 0 1 1-1-1m-788 1 1 1-1-1m786 0 1 1-1-1m-784 1 1 1-1-1m782 0 1 1-1-1m-780 1 1 1-1-1m778 0 1 1-1-1m-776 1 1 1-1-1m774 0 1 1-1-1m-2 1 1 1-1-1m-2 1 1 1-1-1m-747 10 1 1-1-1m2 1 1 1-1-1m724 0 1 1-1-1m-722 1 1 1-1-1m720 0 1 1-1-1m-718 1 1 1-1-1m716 0 1 1-1-1m-714 1 1 1-1-1m712 0 1 1-1-1m-710 1 1 1-1-1m708 0 1 1-1-1m-706 1 1 1-1-1m704 0 1 1-1-1m-702 1 1 1-1-1m700 0 1 1-1-1m-698 1 1 1-1-1m696 0 1 1-1-1m-694 1 1 1-1-1m692 0 1 1-1-1m-690 1 1 1-1-1m688 0 1 1-1-1m-686 1 1 1-1-1m684 0 1 1-1-1m-682 1 1 1-1-1m680 0 1 1-1-1m-678 1 1 1-1-1m676 0 1 1-1-1m-674 1 1 1-1-1m672 0 1 1-1-1m-651 11 1 1-1-1m2 1 1 1-1-1m626 0 1 1-1-1m-624 1 1 1-1-1m622 0 1 1-1-1m-620 1 1 1-1-1m618 0 1 1-1-1m-616 1 1 1-1-1m614 0 1 1-1-1m-612 1 1 1-1-1m610 0 1 1-1-1m-608 1 1 1-1-1m606 0 1 1-1-1m-604 1 1 1-1-1m602 0 1 1-1-1m-600 1 1 1-1-1m598 0 1 1-1-1m-596 1 1 1-1-1m594 0 1 1-1-1m-592 1 1 1-1-1m590 0 1 1-1-1m-588 1 1 1-1-1m586 0 1 1-1-1m-584 1 1 1-1-1m582 0 1 1-1-1m-580 1 1 1-1-1m578 0 1 1-1-1m-576 1 1 1-1-1m574 0 1 1-1-1m-2 1 1 1-1-1m-551 10 1 1-1-1m2 1 1 1-1-1m528 0 1 1-1-1m-526 1 1 1-1-1m524 0 1 1-1-1m-522 1 1 1-1-1m520 0 1 1-1-1m-518 1 1 1-1-1m516 0 1 1-1-1m-514 1 1 1-1-1m512 0 1 1-1-1m-510 1 1 1-1-1m508 0 1 1-1-1m-506 1 1 1-1-1m504 0 1 1-1-1m-502 1 1 1-1-1m500 0 1 1-1-1m-498 1 1 1-1-1m496 0 1 1-1-1m-494 1 1 1-1-1m492 0 1 1-1-1m-490 1 1 1-1-1m488 0 1 1-1-1m-486 1 1 1-1-1m484 0 1 1-1-1m-482 1 1 1-1-1m480 0 1 1-1-1m-2 1 1 1-1-1m-2 1 1 1-1-1m-455 9 1 1z"/>
  <path fill="#00f" d="m780.667 158.333.666.334zm1.333.091c-24.488 3.255-44.191 13.418-66 24.329-26.135 13.076-51.868 26.934-78 40-99.535 49.767-197.471 102.729-297 152.494-27.138 13.569-53.866 27.939-81 41.506-22.775 11.388-45.055 22.114-48.711 50.247-4.282 32.95 20.231 49.528 45.711 63.309 24.349 13.168 49.239 25.557 74 37.938 104.889 52.445 210.852 104.276 314 160.062 25.005 13.523 50.571 26.224 76 38.938 24.575 12.287 49.581 24.867 78 21.467 23.027-2.754 42.562-13.248 63-23.467 26.795-13.397 53.208-27.604 80-41 99.74-49.869 198.27-102.134 298-152 27.79-13.893 55.53-27.97 83-42.466 21.65-11.424 42.16-24.051 44.83-50.781 3.76-37.65-28.46-52.064-56.83-66.247-21.13-10.564-41.87-21.942-63-32.506-106.7-53.348-214.08-106.81-319-163.556-23.726-12.831-48.03-24.577-72-36.95-22.856-11.797-48.3-24.865-75-21.317z"/>
  <path fill="#4d4d4d" d="m780.667 158.333.666.334z"/>
</svg>
