<svg xmlns="http://www.w3.org/2000/svg" fill="none" viewBox="0 0 48 48">
    <path fill="#34D1BF" stroke="#000" stroke-linejoin="round" stroke-width="4" d="M30.2972 18.7786s-3.2293 9.1022-4.7638 10.6913c-1.5346 1.5892-4.0669 1.6334-5.656.0988-1.5892-1.5346-1.6334-4.0669-.0988-5.656 1.5346-1.5891 10.5186-5.1341 10.5186-5.1341Z"/>
    <path stroke="#1F8C7F" stroke-linecap="round" stroke-linejoin="round" stroke-width="4" d="M38.8492 38.8492C42.6495 35.049 45 29.799 45 24c0-11.598-9.402-21-21-21S3 12.402 3 24c0 5.799 2.35051 11.049 6.15076 14.8492M24 4v4m14.8454 3.1421-3.1086 2.5172m6.7857 13.5735-3.8974-.8998m-33.14761.8998 3.89748-.8998m-.22034-15.1909 3.10857 2.5172"/>
</svg>