<svg xmlns="http://www.w3.org/2000/svg" viewBox="0 0 384 448">
	<path fill="#1F8C7F" d="M0 0v448h352V111.01953L240.98047 0H0Zm32 32h192v96h96v288H32V32z"/>
	<path fill="#34D1BF" d="M80 160h192c8.864 0 16 7.136 16 16s-7.136 16-16 16H80c-8.864 0-16-7.136-16-16s7.136-16 16-16zm0 64h192c8.864 0 16 7.136 16 16s-7.136 16-16 16H80c-8.864 0-16-7.136-16-16s7.136-16 16-16zm0 64h192c8.864 0 16 7.136 16 16s-7.136 16-16 16H80c-8.864 0-16-7.136-16-16s7.136-16 16-16zm0 64h80c8.864 0 16 7.136 16 16s-7.136 16-16 16H80c-8.864 0-16-7.136-16-16s7.136-16 16-16z"/>
  </svg>